<?xml version="1.0" encoding="UTF-8" standalone="no"?>
<!-- Created with Inkscape (http://www.inkscape.org/) -->

<svg
   width="178.25677mm"
   height="26.7208mm"
   viewBox="0 0 178.25678 26.7208"
   version="1.1"
   id="svg5"
   xmlns="http://www.w3.org/2000/svg"
   xmlns:svg="http://www.w3.org/2000/svg">
  <defs
     id="defs2">
    <rect
       x="35.266663"
       y="366.66492"
       width="732.03876"
       height="312.04019"
       id="rect2102" />
  </defs>
  <g
     id="layer1"
     transform="translate(-11.947413,-98.90091)">
    <g
       aria-label="{Lib-Static}"
       transform="scale(0.26458333)"
       id="text2100"
       style="font-size:96px;line-height:1.25;white-space:pre;shape-inside:url(#rect2102)">
      <path
         d="m 75.011578,474.79072 q -8.976,0 -14.064,-3.792 -5.04,-3.792 -5.04,-11.088 0,-1.104 0.288,-2.592 0.336,-1.488 1.056,-4.176 0.96,-3.648 1.44,-6 0.48,-2.448 1.008,-4.656 0.384,-1.584 0.576,-2.784 0.24,-1.248 0.24,-2.16 0,-2.688 -1.584,-4.464 -1.584,-1.776 -4.896,-2.976 -3.264,-1.2 -8.88,-2.256 v -6.72 q 5.712,-1.344 8.976,-2.592 3.264,-1.296 4.8,-3.024 1.584,-1.776 1.584,-4.368 0,-1.488 -0.432,-3.648 -0.432,-2.16 -1.392,-5.856 l -0.576,-2.256 q -1.104,-4.32 -1.68,-6.816 -0.528,-2.544 -0.528,-3.888 0,-7.296 5.04,-11.088 5.088,-3.792 14.064,-3.792 1.872,0 4.176,0.288 2.352,0.24 4.272,0.768 v 7.392 q -2.592,-0.384 -4.656,-0.672 -2.016,-0.288 -2.928,-0.288 -4.224,0 -6.96,2.016 -2.736,2.016 -2.736,6.144 0,1.392 0.384,3.6 0.432,2.208 1.44,6.672 l 0.288,1.152 q 1.248,5.424 1.248,10.464 0,5.184 -2.112,8.16 -2.112,2.976 -6.816,4.416 v 0.48 q 4.608,1.632 7.056,4.992 2.448,3.36 2.448,7.536 0,2.16 -0.384,4.368 -0.384,2.208 -1.44,6.624 l -0.816,3.264 q -0.768,2.88 -1.104,4.656 -0.288,1.824 -0.192,3.696 0.096,2.352 1.44,4.128 1.392,1.824 3.552,2.784 2.208,0.96 4.704,0.96 1.968,0 7.584,-0.864 v 7.296 q -1.536,0.432 -3.984,0.672 -2.448,0.288 -4.464,0.288 z"
         style="font-weight:bold;font-family:JuliaMono;-inkscape-font-specification:'JuliaMono Bold'"
         id="path52004" />
      <path
         d="m 100.25943,385.60672 h 12.48 v 59.04 h 32.256 v 10.656 h -44.736 z"
         style="font-weight:bold;font-family:JuliaMono;-inkscape-font-specification:'JuliaMono Bold'"
         id="path52006" />
      <path
         d="m 159.73129,402.50272 h 26.016 v 44.16 h 13.056 v 8.64 h -38.208 v -8.64 h 13.44 v -35.808 h -14.304 z m 11.04,-16.032 q 0,-4.176 1.728,-5.856 1.728,-1.728 5.856,-1.728 4.176,0 5.856,1.728 1.728,1.68 1.728,5.856 0,4.128 -1.728,5.856 -1.68,1.728 -5.856,1.728 -4.08,0 -5.856,-1.728 -1.728,-1.776 -1.728,-5.856 z"
         style="font-weight:bold;font-family:JuliaMono;-inkscape-font-specification:'JuliaMono Bold'"
         id="path52008" />
      <path
         d="m 240.13114,456.35872 q -4.464,0 -7.824,-1.44 -3.312,-1.488 -6.096,-5.568 l -0.288,5.952 h -11.232 l 0.096,-1.392 q 0.288,-6.24 0.288,-10.32 v -64.128 h 11.808 v 30.72 q 2.496,-4.128 6.096,-6.144 3.6,-2.016 7.248,-2.016 6.672,0 10.848,3.792 4.224,3.744 6.096,9.984 1.872,6.192 1.872,13.872 0,6.912 -2.112,13.008 -2.064,6.096 -6.336,9.888 -4.272,3.792 -10.464,3.792 z m -14.016,-26.208 q 0,4.032 1.056,8.064 1.056,4.032 3.408,6.768 2.4,2.736 6.096,2.736 3.984,0 6.336,-2.736 2.4,-2.784 3.36,-6.816 0.96,-4.032 0.96,-8.208 0,-7.968 -2.304,-13.104 -2.304,-5.136 -7.776,-5.136 -3.792,0 -6.288,2.592 -2.496,2.544 -3.696,6.72 -1.152,4.176 -1.152,9.12 z"
         style="font-weight:bold;font-family:JuliaMono;-inkscape-font-specification:'JuliaMono Bold'"
         id="path52010" />
      <path
         d="m 275.26699,423.52672 h 38.496 v 10.56 h -38.496 z"
         style="font-weight:bold;font-family:JuliaMono;-inkscape-font-specification:'JuliaMono Bold'"
         id="path52012" />
      <path
         d="m 334.97885,436.10272 q 4.32,4.608 8.4,7.056 4.128,2.448 8.208,2.448 5.664,0 9.072,-2.448 3.408,-2.496 3.408,-7.344 0,-2.976 -1.488,-4.8 -1.488,-1.824 -3.84,-2.88 -2.304,-1.104 -6.768,-2.592 -0.768,-0.24 -2.496,-0.816 -1.728,-0.624 -3.168,-1.2 -5.232,-2.064 -9.024,-4.512 -3.792,-2.496 -6.096,-6.144 -2.256,-3.648 -2.256,-8.64 0,-5.904 3.12,-10.32 3.12,-4.416 8.64,-6.768 5.52,-2.4 12.528,-2.4 7.152,0 12.288,2.544 5.184,2.496 10.08,7.728 l -7.776,7.008 q -3.6,-3.504 -7.152,-5.28 -3.552,-1.824 -8.016,-1.824 -3.216,0 -5.952,1.008 -2.688,0.96 -4.32,2.976 -1.632,2.016 -1.632,4.944 0,3.072 1.968,5.184 1.968,2.064 4.896,3.408 2.976,1.296 8.112,3.072 6.576,2.256 10.704,4.272 4.128,2.016 7.008,5.712 2.928,3.696 2.928,9.456 0,6.432 -3.072,11.232 -3.072,4.8 -8.64,7.392 -5.568,2.592 -12.864,2.592 -7.872,0 -13.92,-3.504 -6.048,-3.552 -10.944,-9.456 z"
         style="font-weight:bold;font-family:JuliaMono;-inkscape-font-specification:'JuliaMono Bold'"
         id="path52014" />
      <path
         d="m 418.1147,455.87872 q -8.352,0 -12,-3.264 -3.648,-3.312 -3.648,-9.888 v -30.912 h -14.4 v -9.312 h 14.4 v -19.296 h 11.616 v 19.296 h 14.88 v 9.312 h -14.88 v 25.824 q 0,3.456 0.672,5.328 0.72,1.872 2.352,2.64 1.68,0.768 4.752,0.768 1.632,0 4.608,-0.384 3.024,-0.384 4.8,-0.768 v 9.216 q -2.016,0.528 -6.096,0.96 -4.032,0.48 -7.056,0.48 z"
         style="font-weight:bold;font-family:JuliaMono;-inkscape-font-specification:'JuliaMono Bold'"
         id="path52016" />
      <path
         d="m 462.03455,456.26272 q -8.352,0 -12.72,-4.176 -4.368,-4.176 -4.368,-11.376 0,-9.888 7.488,-13.824 7.488,-3.936 18.72,-3.936 h 5.856 v -2.112 q 0,-2.16 -0.912,-4.32 -0.912,-2.208 -3.12,-3.744 -2.208,-1.536 -5.904,-1.536 -3.6,0 -6.912,1.488 -3.264,1.44 -6.48,3.888 l -5.76,-7.296 q 4.416,-3.696 9.12,-5.568 4.752,-1.92 11.232,-1.92 10.992,0 15.648,5.232 4.704,5.232 4.704,14.448 v 18.624 q 0,6.048 0.96,15.168 h -11.904 q -0.336,-2.928 -0.48,-6.816 -4.464,7.776 -15.168,7.776 z m -6.624,-16.272 q 0,3.888 2.736,5.76 2.784,1.872 6.768,1.872 6.096,0 9.024,-4.272 2.976,-4.272 2.976,-12.048 h -3.936 q -8.784,0 -13.2,2.016 -4.368,1.968 -4.368,6.672 z"
         style="font-weight:bold;font-family:JuliaMono;-inkscape-font-specification:'JuliaMono Bold'"
         id="path52018" />
      <path
         d="m 533.31441,455.87872 q -8.352,0 -12,-3.264 -3.648,-3.312 -3.648,-9.888 v -30.912 h -14.4 v -9.312 h 14.4 v -19.296 h 11.616 v 19.296 h 14.88 v 9.312 h -14.88 v 25.824 q 0,3.456 0.672,5.328 0.72,1.872 2.352,2.64 1.68,0.768 4.752,0.768 1.632,0 4.608,-0.384 3.024,-0.384 4.8,-0.768 v 9.216 q -2.016,0.528 -6.096,0.96 -4.032,0.48 -7.056,0.48 z"
         style="font-weight:bold;font-family:JuliaMono;-inkscape-font-specification:'JuliaMono Bold'"
         id="path52020" />
      <path
         d="m 562.93026,402.50272 h 26.016 v 44.16 h 13.056 v 8.64 h -38.208 v -8.64 h 13.44 v -35.808 h -14.304 z m 11.04,-16.032 q 0,-4.176 1.728,-5.856 1.728,-1.728 5.856,-1.728 4.176,0 5.856,1.728 1.728,1.68 1.728,5.856 0,4.128 -1.728,5.856 -1.68,1.728 -5.856,1.728 -4.08,0 -5.856,-1.728 -1.728,-1.776 -1.728,-5.856 z"
         style="font-weight:bold;font-family:JuliaMono;-inkscape-font-specification:'JuliaMono Bold'"
         id="path52022" />
      <path
         d="m 642.70611,456.16672 q -7.392,0 -13.2,-3.216 -5.808,-3.264 -9.12,-9.408 -3.312,-6.144 -3.312,-14.64 0,-8.16 3.216,-14.304 3.264,-6.144 9.216,-9.504 5.952,-3.36 13.872,-3.36 6.912,0 11.52,2.592 4.608,2.592 7.68,6.816 l -7.392,6.912 q -2.688,-3.024 -5.28,-4.56 -2.592,-1.584 -6.336,-1.584 -4.272,0 -7.632,2.064 -3.312,2.064 -5.184,5.856 -1.872,3.792 -1.872,8.784 0,5.328 2.016,9.216 2.064,3.888 5.328,5.952 3.312,2.016 6.96,2.016 3.408,0 6.72,-1.92 3.36,-1.92 5.76,-4.8 l 7.392,6.816 q -3.696,4.56 -8.544,7.44 -4.848,2.832 -11.808,2.832 z"
         style="font-weight:bold;font-family:JuliaMono;-inkscape-font-specification:'JuliaMono Bold'"
         id="path52024" />
      <path
         d="m 689.02597,474.79072 q -2.016,0 -4.464,-0.288 -2.448,-0.24 -3.984,-0.672 v -7.296 q 5.616,0.864 7.584,0.864 2.496,0 4.656,-0.96 2.208,-0.96 3.552,-2.784 1.392,-1.776 1.488,-4.128 0.096,-1.872 -0.24,-3.696 -0.288,-1.776 -1.056,-4.656 l -0.816,-3.264 q -1.056,-4.416 -1.44,-6.624 -0.384,-2.208 -0.384,-4.368 0,-4.176 2.448,-7.536 2.448,-3.36 7.056,-4.992 v -0.48 q -4.704,-1.44 -6.816,-4.416 -2.112,-2.976 -2.112,-8.16 0,-5.04 1.248,-10.464 l 0.288,-1.152 q 1.008,-4.464 1.392,-6.672 0.432,-2.208 0.432,-3.6 0,-4.128 -2.736,-6.144 -2.736,-2.016 -6.96,-2.016 -0.912,0 -2.976,0.288 -2.016,0.288 -4.608,0.672 v -7.392 q 1.92,-0.528 4.224,-0.768 2.352,-0.288 4.224,-0.288 8.976,0 14.016,3.792 5.088,3.792 5.088,11.088 0,1.344 -0.576,3.888 -0.528,2.496 -1.632,6.816 l -0.576,2.256 q -0.96,3.696 -1.392,5.856 -0.432,2.16 -0.432,3.648 0,2.592 1.536,4.368 1.584,1.728 4.848,3.024 3.264,1.248 8.976,2.592 v 6.72 q -5.616,1.056 -8.928,2.256 -3.264,1.2 -4.848,2.976 -1.584,1.776 -1.584,4.464 0,0.912 0.192,2.16 0.24,1.2 0.624,2.784 0.528,2.208 1.008,4.656 0.48,2.352 1.44,6 0.72,2.688 1.008,4.176 0.336,1.488 0.336,2.592 0,7.296 -5.088,11.088 -5.04,3.792 -14.016,3.792 z"
         style="font-weight:bold;font-family:JuliaMono;-inkscape-font-specification:'JuliaMono Bold'"
         id="path52026" />
    </g>
  </g>
</svg>
