<?xml version="1.0" encoding="UTF-8" standalone="no"?>
<!-- Created with Inkscape (http://www.inkscape.org/) -->

<svg
   width="123.27421mm"
   height="59.210129mm"
   viewBox="0 0 123.27421 59.210129"
   version="1.1"
   id="svg839"
   xmlns="http://www.w3.org/2000/svg"
   xmlns:svg="http://www.w3.org/2000/svg">
  <defs
     id="defs836">
    <rect
       x="75.863304"
       y="354.88596"
       width="861.49847"
       height="416.60526"
       id="rect2640" />
  </defs>
  <g
     id="layer1"
     transform="translate(-26.845482,-98.261349)">
    <g
       aria-label="{LS}"
       transform="scale(0.26458333)"
       id="text2638"
       style="font-size:213.333px;line-height:1.25;white-space:pre;shape-inside:url(#rect2640)">
      <path
         d="m 164.18314,595.16779 q -19.19997,0 -29.43995,-7.99999 -10.23999,-7.99998 -10.23999,-23.78662 0,-2.88 0.85334,-6.82666 0.85333,-3.83999 2.77332,-11.51998 l 2.56,-10.02665 q 3.62666,-15.03998 3.62666,-21.75997 0,-6.50665 -3.09333,-10.23998 -2.98666,-3.73333 -8.74665,-6.07999 -5.65332,-2.34666 -18.1333,-6.07999 l -2.88,-0.85333 v -12.79998 q 1.92,-0.64 2.88,-0.85334 12.47998,-3.94666 18.1333,-6.39999 5.75999,-2.45332 8.74665,-6.18665 3.09333,-3.84 3.09333,-10.23999 0,-6.29332 -3.62666,-21.75996 l -2.13333,-8.74665 q -2.02666,-8.10666 -3.09333,-12.58665 -0.96,-4.47999 -0.96,-7.25332 0,-15.78664 10.23999,-23.78663 10.23998,-7.99999 29.43995,-7.99999 3.51999,0 8.63999,0.53333 5.11999,0.53334 8.85332,1.38667 v 14.29331 l -4.05333,-0.64 q -9.17332,-1.28 -11.51998,-1.28 -5.22666,0 -10.66665,2.02667 -5.43999,1.91999 -9.17332,6.29332 -3.62666,4.26666 -3.62666,10.87998 0,2.56 0.85333,6.82666 0.85333,4.15999 2.66666,11.41331 l 1.81333,7.78666 q 1.81333,7.46665 2.24,12.79998 0.53333,5.33332 0.53333,10.45331 0,11.30665 -4.47999,18.45331 -4.37333,7.03999 -14.50664,10.55998 6.71998,2.56 11.73331,7.67999 5.01333,5.11999 7.46665,11.09331 2.56,5.86666 2.34667,10.45332 -0.10667,3.41333 -0.64,5.86666 -0.53333,2.34666 -1.70667,6.07999 -2.13333,7.46665 -2.98666,11.73331 -0.85333,4.16 -2.87999,10.98665 -1.38667,4.69333 -2.02667,7.46666 -0.53333,2.87999 -0.53333,6.18665 0,1.70667 0.10667,2.66667 0.42666,4.58665 4.37332,8.63998 3.94666,4.16 9.38666,6.61332 5.43999,2.45333 9.70665,2.45333 4.37332,0 15.57331,-1.91999 v 13.86664 q -3.2,0.85333 -8.31999,1.49333 -5.11999,0.64 -9.17332,0.64 z"
         style="font-family:JuliaMono;-inkscape-font-specification:JuliaMono"
         id="path19266" />
      <path
         d="m 224.12939,396.76811 h 18.7733 v 139.51978 h 75.73321 v 15.5733 h -94.50651 z"
         style="font-family:JuliaMono;-inkscape-font-specification:JuliaMono"
         id="path19268" />
      <path
         d="m 354.90219,516.23458 q 9.81332,10.45332 19.83997,16.31998 10.13332,5.86666 19.19997,5.86666 9.81332,0 17.8133,-2.88 7.99999,-2.88 12.79998,-8.95999 4.8,-6.07999 4.8,-15.2533 0,-8.42666 -4.58666,-13.75998 -4.48,-5.33333 -11.30665,-8.31999 -6.71999,-2.98666 -18.77331,-6.82666 -8.31998,-2.55999 -11.41331,-3.73332 -17.27997,-6.07999 -27.51996,-15.46664 -10.23998,-9.38666 -10.23998,-25.27996 0,-14.18665 7.14666,-23.8933 7.14665,-9.70665 18.7733,-14.29331 11.62665,-4.69333 25.06663,-4.69333 10.66664,0 18.87996,2.66667 8.21333,2.66666 14.71998,7.46665 6.50666,4.69333 13.33331,12.05332 l -12.15998,10.87998 q -7.14665,-8.10666 -16.10664,-12.69331 -8.85332,-4.58666 -18.87997,-4.58666 -7.89332,0 -15.46664,2.98666 -7.57332,2.87999 -12.47998,8.74665 -4.90666,5.75999 -4.90666,14.07998 0,8.63998 5.01333,14.29331 5.01332,5.65332 12.37331,9.06665 7.46665,3.41333 20.26663,7.67999 14.71998,4.79999 23.67997,9.17332 9.06665,4.37332 15.35997,12.26664 6.29333,7.89332 6.29333,20.26664 0,13.01331 -6.39999,23.25329 -6.39999,10.13332 -18.13331,15.89331 -11.62665,5.65333 -26.87996,5.65333 -29.54662,0 -51.41325,-26.45329 z"
         style="font-family:JuliaMono;-inkscape-font-specification:JuliaMono"
         id="path19270" />
      <path
         d="m 504.66162,595.16779 q -4.05332,0 -9.17332,-0.64 -5.11999,-0.64 -8.31998,-1.49333 v -13.86664 q 11.19998,1.91999 15.57331,1.91999 4.26666,0 9.70665,-2.45333 5.43999,-2.45332 9.38665,-6.61332 3.94666,-4.05333 4.37333,-8.63998 0.10666,-0.96 0.10666,-2.66667 0,-3.30666 -0.64,-6.18665 -0.53333,-2.77333 -1.91999,-7.46666 -2.02667,-6.82665 -2.88,-10.98665 -0.85333,-4.26666 -2.98666,-11.73331 -1.17333,-3.73333 -1.70667,-6.07999 -0.53333,-2.45333 -0.63999,-5.86666 -0.21334,-4.58666 2.23999,-10.45332 2.56,-5.97332 7.57332,-11.09331 5.01333,-5.11999 11.73332,-7.67999 -10.13332,-3.51999 -14.61331,-10.55998 -4.37333,-7.14666 -4.37333,-18.45331 0,-5.11999 0.42667,-10.45331 0.53333,-5.33333 2.34666,-12.79998 l 1.81333,-7.78666 q 1.81333,-7.25332 2.66666,-11.41331 0.85334,-4.26666 0.85334,-6.82666 0,-6.61332 -3.73333,-10.87998 -3.62666,-4.37333 -9.06665,-6.29332 -5.44,-2.02667 -10.66665,-2.02667 -2.34667,0 -11.51999,1.28 l -4.05332,0.64 v -14.29331 q 3.73332,-0.85333 8.85332,-1.38667 5.22665,-0.53333 8.63998,-0.53333 19.19997,0 29.43996,7.99999 10.23998,7.99999 10.23998,23.78663 0,2.77333 -1.06667,7.25332 -0.95999,4.47999 -2.98666,12.58665 l -2.13333,8.74665 q -3.62666,15.46664 -3.62666,21.75996 0,6.39999 2.98666,10.23999 3.09333,3.73333 8.74666,6.18665 5.75999,2.45333 18.23997,6.39999 0.96,0.21334 2.87999,0.85334 v 12.79998 l -2.87999,0.85333 q -12.47998,3.73333 -18.23997,6.07999 -5.65333,2.34666 -8.74666,6.07999 -2.98666,3.73333 -2.98666,10.23998 0,6.71999 3.62666,21.75997 l 2.56,10.02665 q 1.92,7.67999 2.77333,11.51998 0.85333,3.94666 0.85333,6.82666 0,15.78664 -10.23998,23.78662 -10.23999,7.99999 -29.43996,7.99999 z"
         style="font-family:JuliaMono;-inkscape-font-specification:JuliaMono"
         id="path19272" />
    </g>
  </g>
</svg>
