<?xml version="1.0" encoding="UTF-8" standalone="no"?>
<!-- Created with Inkscape (http://www.inkscape.org/) -->

<svg
   width="181.68123mm"
   height="25.373949mm"
   viewBox="0 0 181.68123 25.373948"
   version="1.1"
   id="svg5"
   sodipodi:docname="lib-static-text-2.svg"
   inkscape:version="1.1.1 (3bf5ae0d25, 2021-09-20)"
   xmlns:inkscape="http://www.inkscape.org/namespaces/inkscape"
   xmlns:sodipodi="http://sodipodi.sourceforge.net/DTD/sodipodi-0.dtd"
   xmlns="http://www.w3.org/2000/svg"
   xmlns:svg="http://www.w3.org/2000/svg">
  <sodipodi:namedview
     id="namedview24842"
     pagecolor="#ffffff"
     bordercolor="#666666"
     borderopacity="1.0"
     inkscape:pageshadow="2"
     inkscape:pageopacity="0.0"
     inkscape:pagecheckerboard="0"
     inkscape:document-units="mm"
     showgrid="false"
     inkscape:zoom="1.8232942"
     inkscape:cx="343.60883"
     inkscape:cy="47.990061"
     inkscape:window-width="2560"
     inkscape:window-height="1361"
     inkscape:window-x="2551"
     inkscape:window-y="-9"
     inkscape:window-maximized="1"
     inkscape:current-layer="svg5" />
  <defs
     id="defs2">
    <rect
       x="35.266663"
       y="366.66492"
       width="732.03876"
       height="312.04019"
       id="rect2102" />
  </defs>
  <g
     id="layer1"
     transform="translate(-12.275008,-97.681322)">
    <g
       aria-label="{Lib-Static}"
       transform="scale(0.26458333)"
       id="text2100"
       style="font-size:96px;line-height:1.25;white-space:pre;shape-inside:url(#rect2102)">
      <path
         d="m 80.264501,377.31233 q -5.563077,0 -8.566154,1.67385 -2.953846,1.62461 -2.56,5.56307 l 1.821539,18.0677 q 0.147692,1.23077 0.147692,2.4123 0,5.46462 -3.003077,8.32 -2.953846,2.80616 -8.664615,3.79077 5.907692,0.98462 8.763077,3.69231 2.904615,2.70769 2.904615,8.22154 0,1.18154 -0.147692,2.60923 l -1.821539,18.06769 q -0.04923,0.29539 -0.04923,0.88616 0,3.44615 2.953846,4.87384 2.953846,1.47693 8.221538,1.47693 v 8.12307 q -10.338461,0 -15.901538,-3.24923 -5.563077,-3.2 -5.563077,-10.78154 0,-1.1323 0.147692,-2.36307 l 1.821539,-16.98462 q 0.09846,-1.08308 0.09846,-1.62461 0,-4.43077 -3.396923,-6.44923 -3.347692,-2.0677 -11.076923,-2.0677 v -8.86154 q 7.729231,0 11.076923,-2.01846 3.396923,-2.01846 3.396923,-6.49846 0,-0.49231 -0.09846,-1.57538 l -1.821539,-16.98462 q -0.147692,-1.28 -0.147692,-2.46154 0,-7.58154 5.563077,-10.78154 5.612307,-3.2 15.901538,-3.2 z"
         style="font-weight:500;font-family:'Fira Code';-inkscape-font-specification:'Fira Code Medium'"
         id="path45853" />
      <path
         d="M 146.7259,451.60156 H 106.11051 V 383.6631 h 11.42154 v 58.38769 h 30.42462 z"
         style="font-weight:500;font-family:'Fira Code';-inkscape-font-specification:'Fira Code Medium'"
         id="path45855" />
      <path
         d="m 182.91037,374.16156 q 3.2,0 5.21846,1.96923 2.01847,1.96923 2.01847,4.92308 0,3.00308 -2.01847,5.02154 -2.01846,1.96923 -5.21846,1.96923 -3.15077,0 -5.16923,-1.96923 -2.01846,-2.01846 -2.01846,-5.02154 0,-2.95385 2.01846,-4.92308 2.01846,-1.96923 5.16923,-1.96923 z m -18.4123,25.45231 h 26.0923 v 43.91385 h 14.12923 v 8.07384 h -40.71384 v -8.07384 h 15.55692 v -35.84 h -15.06461 z"
         style="font-weight:500;font-family:'Fira Code';-inkscape-font-specification:'Fira Code Medium'"
         id="path45857" />
      <path
         d="m 232.28869,405.81695 q 2.75693,-3.64308 6.4,-5.61231 3.64308,-1.96923 7.87693,-1.96923 9.89538,0 14.62154,7.18769 4.72615,7.13846 4.72615,20.08615 0,8.02462 -2.41231,14.2277 -2.36308,6.20307 -7.04,9.69846 -4.67692,3.49538 -11.22461,3.49538 -8.71385,0 -13.68616,-6.44923 l -0.59077,5.12 H 221.261 v -72.86154 l 11.02769,-1.23077 z m 10.19077,38.69538 q 5.71077,0 8.71385,-4.67692 3.05231,-4.67692 3.05231,-14.27692 0,-9.7477 -2.7077,-14.27693 -2.70769,-4.52923 -7.97538,-4.52923 -3.44615,0 -6.30154,2.06769 -2.80615,2.01847 -4.97231,5.36616 v 24.32 q 1.82154,2.85538 4.43077,4.43077 2.65846,1.57538 5.76,1.57538 z"
         style="font-weight:500;font-family:'Fira Code';-inkscape-font-specification:'Fira Code Medium'"
         id="path45859" />
      <path
         d="m 321.44548,425.31233 h -40.66462 v -9.05846 h 40.66462 z"
         style="font-weight:500;font-family:'Fira Code';-inkscape-font-specification:'Fira Code Medium'"
         id="path45861" />
      <path
         d="m 384.65764,432.40156 q 0,6.05539 -3.10154,10.73231 -3.0523,4.62769 -8.91076,7.23692 -5.85847,2.56 -13.88308,2.56 -8.02462,0 -14.27692,-2.36307 -6.25231,-2.41231 -10.73231,-6.74462 l 6.25231,-6.99077 q 3.74153,3.44616 8.32,5.26769 4.62769,1.82154 10.38769,1.82154 3.93846,0 7.08923,-1.23077 3.2,-1.28 5.07077,-3.74154 1.92,-2.46153 1.92,-6.00615 0,-3.05231 -1.23077,-5.12 -1.23077,-2.06769 -4.23385,-3.69231 -3.00307,-1.62461 -8.46769,-3.24923 -7.53231,-2.26461 -12.30769,-4.92307 -4.72616,-2.65847 -7.18769,-6.35077 -2.41231,-3.74154 -2.41231,-8.96 0,-5.41539 3.00307,-9.6 3.05231,-4.18462 8.36924,-6.44923 5.31692,-2.31385 11.96307,-2.31385 7.13846,0 12.70154,2.06769 5.61231,2.06769 10.04308,6.10462 l -6.00616,6.79384 q -3.49538,-3.0523 -7.58153,-4.52923 -4.08616,-1.47692 -8.4677,-1.47692 -5.46461,0 -8.91077,2.26461 -3.39692,2.26462 -3.39692,6.49847 0,2.70769 1.42769,4.52923 1.47693,1.82154 4.82462,3.39692 3.34769,1.57538 9.64923,3.44615 6.4,1.92 10.73231,4.38154 4.3323,2.41231 6.84307,6.49846 2.51077,4.03693 2.51077,10.14154 z"
         style="font-weight:500;font-family:'Fira Code';-inkscape-font-specification:'Fira Code Medium'"
         id="path45863" />
      <path
         d="m 441.91289,448.84464 q -2.90462,1.87077 -6.94154,2.95385 -3.98769,1.1323 -8.22154,1.1323 -5.95692,0 -10.09231,-2.11692 -4.13538,-2.11692 -6.25231,-5.95692 -2.11692,-3.84 -2.11692,-9.00923 v -28.20923 h -11.56923 v -8.02462 h 11.56923 v -11.61846 l 11.02769,-1.32923 v 12.94769 h 17.52616 l -1.23077,8.02462 h -16.29539 v 28.11076 q 0,4.23385 2.11693,6.25231 2.11692,2.01846 6.84307,2.01846 5.21847,0 9.64923,-2.46153 z"
         style="font-weight:500;font-family:'Fira Code';-inkscape-font-specification:'Fira Code Medium'"
         id="path45865" />
      <path
         d="m 497.29736,438.85079 q 0,3.00308 0.88616,4.43077 0.93538,1.42769 3.0523,2.11693 l -2.46154,7.48307 q -3.98769,-0.44307 -6.69538,-2.16615 -2.70769,-1.72308 -4.08615,-5.02154 -2.80616,3.54462 -7.13847,5.41538 -4.3323,1.82154 -9.4523,1.82154 -5.21846,0 -9.1077,-2.01846 -3.84,-2.01846 -5.90769,-5.66154 -2.06769,-3.64307 -2.06769,-8.46769 0,-8.22154 6.4,-12.65231 6.44923,-4.43077 18.31385,-4.43077 h 7.43384 v -3.39692 q 0,-4.92308 -2.95384,-7.18769 -2.95385,-2.26462 -8.61539,-2.26462 -2.70769,0 -6.35077,0.68923 -3.64307,0.68923 -7.48307,2.01847 l -2.7077,-7.77847 q 4.72616,-1.7723 9.40308,-2.65846 4.67692,-0.88615 8.81231,-0.88615 10.28923,0 15.50769,4.52923 5.21846,4.52923 5.21846,12.89846 z m -22.54769,5.95693 q 3.39692,0 6.54769,-1.77231 3.2,-1.82154 5.16923,-4.97231 v -11.47077 h -6.10461 q -7.53231,0 -11.0277,2.51077 -3.44615,2.46154 -3.44615,7.18769 0,4.18462 2.21539,6.35077 2.26461,2.16616 6.64615,2.16616 z"
         style="font-weight:500;font-family:'Fira Code';-inkscape-font-specification:'Fira Code Medium'"
         id="path45867" />
      <path
         d="m 560.06645,448.84464 q -2.90461,1.87077 -6.94154,2.95385 -3.98769,1.1323 -8.22154,1.1323 -5.95692,0 -10.0923,-2.11692 -4.13539,-2.11692 -6.25231,-5.95692 -2.11692,-3.84 -2.11692,-9.00923 v -28.20923 h -11.56923 v -8.02462 h 11.56923 v -11.61846 l 11.02769,-1.32923 v 12.94769 h 17.52615 l -1.23077,8.02462 h -16.29538 v 28.11076 q 0,4.23385 2.11692,6.25231 2.11692,2.01846 6.84308,2.01846 5.21846,0 9.64923,-2.46153 z"
         style="font-weight:500;font-family:'Fira Code';-inkscape-font-specification:'Fira Code Medium'"
         id="path45869" />
      <path
         d="m 596.44785,374.16156 q 3.2,0 5.21846,1.96923 2.01846,1.96923 2.01846,4.92308 0,3.00308 -2.01846,5.02154 -2.01846,1.96923 -5.21846,1.96923 -3.15077,0 -5.16923,-1.96923 -2.01846,-2.01846 -2.01846,-5.02154 0,-2.95385 2.01846,-4.92308 2.01846,-1.96923 5.16923,-1.96923 z m -18.41231,25.45231 h 26.09231 v 43.91385 h 14.12923 v 8.07384 h -40.71385 v -8.07384 h 15.55693 v -35.84 h -15.06462 z"
         style="font-weight:500;font-family:'Fira Code';-inkscape-font-specification:'Fira Code Medium'"
         id="path45871" />
      <path
         d="m 659.85694,443.87233 q 3.44615,0 6.54769,-1.18154 3.15077,-1.18154 6.25231,-3.34769 l 5.12,7.08923 q -3.49539,2.95385 -8.36923,4.72616 -4.82462,1.7723 -9.89539,1.7723 -7.87692,0 -13.58769,-3.34769 -5.71077,-3.34769 -8.71384,-9.45231 -3.00308,-6.15384 -3.00308,-14.27692 0,-7.97538 3.05231,-14.22769 3.0523,-6.25231 8.8123,-9.79693 5.80923,-3.59384 13.63693,-3.59384 10.43692,0 18.01846,6.25231 l -5.07077,6.94153 q -6.30154,-4.3323 -12.75077,-4.3323 -6.44923,0 -10.24,4.67692 -3.74154,4.67692 -3.74154,14.08 0,9.30462 3.74154,13.68615 3.74154,4.33231 10.19077,4.33231 z"
         style="font-weight:500;font-family:'Fira Code';-inkscape-font-specification:'Fira Code Medium'"
         id="path45873" />
      <path
         d="m 699.19218,369.18925 q 10.33846,0 15.90154,3.24924 5.56308,3.2 5.56308,10.78153 0,1.08308 -0.14769,2.36308 l -1.82154,17.03385 q -0.0985,0.98461 -0.0985,1.42769 0,4.48 3.49538,6.59692 3.49538,2.06769 10.97846,2.06769 v 8.86154 q -7.43384,0 -10.97846,2.11693 -3.49538,2.11692 -3.49538,6.59692 0,0.44308 0.0985,1.42769 l 1.82154,16.93539 q 0.14769,1.23077 0.14769,2.46153 0,7.58154 -5.61231,10.78154 -5.56308,3.2 -15.85231,3.2 v -8.12307 q 5.56308,0 8.51693,-1.62462 3.00307,-1.62461 2.60923,-5.61231 L 708.4968,431.6631 q -0.14769,-1.32923 -0.14769,-2.51077 0,-5.56308 3.0523,-8.27077 3.05231,-2.75692 9.30462,-3.69231 -6.25231,-0.98461 -9.30462,-3.79076 -3.0523,-2.80616 -3.0523,-8.32 0,-1.13231 0.14769,-2.46154 l 1.82154,-18.0677 q 0.0492,-0.29538 0.0492,-0.88615 0,-3.44615 -3.00308,-4.87385 -2.95385,-1.47692 -8.17231,-1.47692 z"
         style="font-weight:500;font-family:'Fira Code';-inkscape-font-specification:'Fira Code Medium'"
         id="path45875" />
    </g>
  </g>
</svg>
