<?xml version="1.0" encoding="UTF-8" standalone="no"?>
<!-- Created with Inkscape (http://www.inkscape.org/) -->

<svg
   width="67.950302mm"
   height="42.159657mm"
   viewBox="0 0 67.950302 42.159657"
   version="1.1"
   id="svg5"
   xmlns="http://www.w3.org/2000/svg"
   xmlns:svg="http://www.w3.org/2000/svg"
   xmlns:rdf="http://www.w3.org/1999/02/22-rdf-syntax-ns#"
   xmlns:cc="http://creativecommons.org/ns#"
   xmlns:dc="http://purl.org/dc/elements/1.1/">
  <title
     id="title853">lib-static</title>
  <defs
     id="defs2">
    <rect
       x="96.740105"
       y="398.03043"
       width="584.71393"
       height="419.85562"
       id="rect3927" />
  </defs>
  <g
     id="layer1"
     transform="translate(-30.697563,-106.4911)">
    <g
       aria-label="{l}"
       transform="scale(0.26458333)"
       id="text3925"
       style="font-size:160px;line-height:1.25;white-space:pre;shape-inside:url(#rect3927)">
      <path
         d="m 171.73511,415.77837 q -9.2718,0 -14.27693,2.78974 -4.92307,2.70769 -4.26666,9.27179 l 3.03589,30.11282 q 0.24616,2.05129 0.24616,4.02052 0,9.10769 -5.00513,13.86666 -4.92308,4.67693 -14.44103,6.31795 9.84616,1.64103 14.60513,6.15385 4.84103,4.51282 4.84103,13.70256 0,1.96923 -0.24616,4.34872 l -3.03589,30.11282 q -0.0821,0.49231 -0.0821,1.47692 0,5.74359 4.92307,8.12308 4.92308,2.46154 13.70257,2.46154 v 13.53846 q -17.23077,0 -26.50257,-5.41538 -9.27179,-5.33334 -9.27179,-17.96923 0,-1.88718 0.24615,-3.93847 l 3.0359,-28.30769 q 0.1641,-1.80513 0.1641,-2.70769 0,-7.38462 -5.66154,-10.74872 -5.57948,-3.44615 -18.46154,-3.44615 v -14.76923 q 12.88206,0 18.46154,-3.36411 5.66154,-3.3641 5.66154,-10.83076 0,-0.82052 -0.1641,-2.62565 l -3.0359,-28.30769 q -0.24615,-2.13333 -0.24615,-4.10256 0,-12.6359 9.27179,-17.96923 9.35385,-5.33334 26.50257,-5.33334 z"
         style="font-weight:500;font-family:'Fira Code';-inkscape-font-specification:'Fira Code Medium';fill:#ffffff"
         id="path826" />
      <path
         d="m 247.87846,515.96298 q 0,5.74359 3.44616,8.36923 3.5282,2.62564 9.68205,2.62564 6.5641,0 13.70256,-2.87179 l 4.67692,12.8 q -9.68205,4.92307 -22.31795,4.92307 -8.61538,0 -14.85128,-3.28205 -6.23589,-3.3641 -9.51795,-9.51795 -3.2,-6.23589 -3.2,-14.68717 v -82.62565 h -26.17435 v -13.53846 h 44.55384 z"
         style="font-weight:500;font-family:'Fira Code';-inkscape-font-specification:'Fira Code Medium';fill:#ffffff"
         id="path828" />
      <path
         d="m 317.12951,402.2399 q 17.23077,0 26.50256,5.41539 9.2718,5.33333 9.2718,17.96923 0,1.80513 -0.24616,3.93846 l -3.03589,28.38974 q -0.16411,1.64103 -0.16411,2.37949 0,7.46667 5.82564,10.99487 5.82565,3.44616 18.29744,3.44616 v 14.76923 q -12.38974,0 -18.29744,3.5282 -5.82564,3.52821 -5.82564,10.99487 0,0.73847 0.16411,2.37949 l 3.03589,28.22564 q 0.24616,2.05129 0.24616,4.10257 0,12.63589 -9.35385,17.96923 -9.27179,5.33333 -26.42051,5.33333 v -13.53846 q 9.27179,0 14.19487,-2.70769 5.00513,-2.70769 4.34872,-9.35385 l -3.0359,-30.11282 q -0.24615,-2.21538 -0.24615,-4.18461 0,-9.2718 5.08718,-13.78462 5.08718,-4.59487 15.50769,-6.15385 -10.42051,-1.64102 -15.50769,-6.31794 -5.08718,-4.67693 -5.08718,-13.86667 0,-1.88718 0.24615,-4.10257 l 3.0359,-30.11282 q 0.0821,-0.4923 0.0821,-1.47692 0,-5.74359 -5.00513,-8.12308 -4.92308,-2.46153 -13.62051,-2.46153 z"
         style="font-weight:500;font-family:'Fira Code';-inkscape-font-specification:'Fira Code Medium';fill:#ffffff"
         id="path830" />
    </g>
  </g>
  <metadata
     id="metadata851">
    <rdf:RDF>
      <cc:Work
         rdf:about="">
        <dc:title>lib-static</dc:title>
      </cc:Work>
    </rdf:RDF>
  </metadata>
</svg>
