<?xml version="1.0" encoding="UTF-8" standalone="no"?>
<!-- Created with Inkscape (http://www.inkscape.org/) -->

<svg
   width="177.62636mm"
   height="21.778515mm"
   viewBox="0 0 177.62636 21.778515"
   version="1.1"
   id="svg5"
   sodipodi:docname="lib-static-text-cp-black.svg"
   inkscape:version="1.1.1 (3bf5ae0d25, 2021-09-20)"
   xmlns:inkscape="http://www.inkscape.org/namespaces/inkscape"
   xmlns:sodipodi="http://sodipodi.sourceforge.net/DTD/sodipodi-0.dtd"
   xmlns="http://www.w3.org/2000/svg"
   xmlns:svg="http://www.w3.org/2000/svg">
  <sodipodi:namedview
     id="namedview9"
     pagecolor="#ffffff"
     bordercolor="#666666"
     borderopacity="1.0"
     inkscape:pageshadow="2"
     inkscape:pageopacity="0.0"
     inkscape:pagecheckerboard="0"
     inkscape:document-units="mm"
     showgrid="false"
     inkscape:zoom="1.8232942"
     inkscape:cx="345.25421"
     inkscape:cy="29.342494"
     inkscape:window-width="2560"
     inkscape:window-height="1361"
     inkscape:window-x="2551"
     inkscape:window-y="-9"
     inkscape:window-maximized="1"
     inkscape:current-layer="svg5" />
  <defs
     id="defs2">
    <rect
       x="35.266663"
       y="366.66492"
       width="732.03876"
       height="312.04019"
       id="rect2102" />
  </defs>
  <g
     id="layer1"
     transform="translate(-11.898498,-102.58185)">
    <g
       aria-label="{Lib-Static}"
       transform="scale(0.26458333)"
       id="text2100"
       style="font-size:96px;line-height:1.25;white-space:pre;shape-inside:url(#rect2102)">
      <path
         d="m 58.142578,429.00781 q 3.421875,2.0625 5.15625,5.4375 1.734375,3.32813 1.734375,7.64063 v 9.89062 q 0,3.14063 0.5625,5.34375 0.5625,2.25 1.734375,3.65625 1.21875,1.40625 3.09375,2.01563 1.921875,0.65625 4.546875,0.65625 1.59375,0 2.25,0.70312 0.703125,0.70313 0.703125,2.48438 0,1.78125 -0.703125,2.48437 -0.65625,0.70313 -2.25,0.70313 -8.203125,0 -12.609375,-4.26563 -4.359375,-4.26562 -4.359375,-13.21875 v -9.98437 q 0,-5.10938 -2.4375,-7.6875 -2.4375,-2.625 -7.640625,-2.625 -1.59375,0 -2.296875,-0.70313 -0.65625,-0.70312 -0.65625,-2.48437 0,-1.78125 0.65625,-2.48438 0.703125,-0.70312 2.296875,-0.70312 5.203125,0 7.640625,-2.625 2.4375,-2.625 2.4375,-7.73438 v -7.92187 q 0,-8.90625 4.359375,-13.17188 4.40625,-4.3125 12.609375,-4.3125 1.59375,0 2.25,0.70313 0.703125,0.70312 0.703125,2.48437 0,1.78125 -0.703125,2.48438 -0.65625,0.70312 -2.25,0.70312 -2.625,0 -4.546875,0.65625 -1.875,0.60938 -3.09375,2.01563 -1.171875,1.40625 -1.734375,3.65625 -0.5625,2.20312 -0.5625,5.34375 v 7.82812 q 0,4.3125 -1.734375,7.64063 -1.734375,3.32812 -5.15625,5.39062 z"
         style="font-family:'Courier Prime';-inkscape-font-specification:'Courier Prime'"
         id="path16263" />
      <path
         d="m 107.12695,402.33594 h -7.593747 q -1.59375,0 -2.296875,-0.70313 -0.65625,-0.70312 -0.65625,-2.48437 0,-1.78125 0.65625,-2.48438 0.703125,-0.70312 2.296875,-0.70312 h 25.968747 q 1.59375,0 2.25,0.70312 0.70313,0.70313 0.70313,2.48438 0,1.78125 -0.70313,2.48437 -0.65625,0.70313 -2.25,0.70313 H 114.1582 v 42.89062 h 23.20313 v -15.42187 q 0,-1.64063 0.75,-2.34375 0.79687,-0.70313 2.76562,-0.70313 1.96875,0 2.71875,0.70313 0.79688,0.70312 0.79688,2.34375 v 18.60937 q 0,1.78125 -0.70313,2.48438 -0.65625,0.70312 -2.25,0.70312 H 99.533203 q -1.59375,0 -2.296875,-0.70312 -0.65625,-0.70313 -0.65625,-2.48438 0,-1.78125 0.65625,-2.48437 0.703125,-0.70313 2.296875,-0.70313 h 7.593747 z"
         style="font-family:'Courier Prime';-inkscape-font-specification:'Courier Prime'"
         id="path16265" />
      <path
         d="m 176.7832,414.66406 h -11.85937 q -1.59375,0 -2.29688,-0.70312 -0.65625,-0.70313 -0.65625,-2.48438 0,-1.78125 0.65625,-2.48437 0.70313,-0.70313 2.29688,-0.70313 h 15.9375 q 1.59375,0 2.25,0.70313 0.70312,0.70312 0.70312,2.48437 v 33.75 h 15.04688 q 1.59375,0 2.25,0.70313 0.70312,0.70312 0.70312,2.48437 0,1.78125 -0.70312,2.48438 -0.65625,0.70312 -2.25,0.70312 h -36.75 q -1.59375,0 -2.29688,-0.70312 -0.65625,-0.70313 -0.65625,-2.48438 0,-1.78125 0.65625,-2.48437 0.70313,-0.70313 2.29688,-0.70313 h 14.67187 z m 7.03125,-17.8125 q 0,1.64063 -0.89062,2.34375 -0.89063,0.70313 -3.5625,0.70313 -2.67188,0 -3.5625,-0.70313 -0.89063,-0.70312 -0.89063,-2.34375 v -6.09375 q 0,-1.64062 0.89063,-2.34375 0.89062,-0.70312 3.5625,-0.70312 2.67187,0 3.5625,0.70312 0.89062,0.70313 0.89062,2.34375 z"
         style="font-family:'Courier Prime';-inkscape-font-specification:'Courier Prime'"
         id="path16267" />
      <path
         d="m 217.42383,396.47656 h -4.78125 q -1.59375,0 -2.29688,-0.70312 -0.65625,-0.70313 -0.65625,-2.48438 0,-1.78125 0.65625,-2.48437 0.70313,-0.70313 2.29688,-0.70313 h 8.85937 q 1.59375,0 2.25,0.70313 0.70313,0.70312 0.70313,2.48437 v 21.70313 q 2.8125,-3.60938 6.46875,-5.67188 3.70312,-2.0625 8.39062,-2.0625 4.35938,0 8.0625,1.54688 3.70313,1.54687 6.375,4.5 2.71875,2.90625 4.26563,7.125 1.54687,4.21875 1.54687,9.51562 0,5.29688 -1.54687,9.51563 -1.54688,4.21875 -4.26563,7.17187 -2.67187,2.90625 -6.375,4.45313 -3.70312,1.54687 -8.0625,1.54687 -4.6875,0 -8.57812,-2.0625 -3.84375,-2.10937 -6.75,-5.90625 v 3.75 q 0,1.78125 -0.70313,2.48438 -0.65625,0.70312 -2.25,0.70312 h -7.45312 q -1.59375,0 -2.29688,-0.70312 -0.65625,-0.70313 -0.65625,-2.48438 0,-1.78125 0.65625,-2.48437 0.70313,-0.70313 2.29688,-0.70313 h 3.84375 z m 7.03125,33.46875 q 0,3.75 1.07812,6.65625 1.07813,2.90625 3,4.96875 1.92188,2.01563 4.54688,3.09375 2.67187,1.03125 5.76562,1.03125 3.1875,0 5.67188,-1.17187 2.48437,-1.17188 4.17187,-3.23438 1.6875,-2.10937 2.57813,-4.96875 0.89062,-2.90625 0.89062,-6.375 0,-3.42187 -0.89062,-6.32812 -0.89063,-2.90625 -2.57813,-4.96875 -1.6875,-2.10938 -4.17187,-3.28125 -2.48438,-1.17188 -5.67188,-1.17188 -3.09375,0 -5.76562,1.07813 -2.625,1.03125 -4.54688,3.09375 -1.92187,2.01562 -3,4.96875 -1.07812,2.90625 -1.07812,6.60937 z"
         style="font-family:'Courier Prime';-inkscape-font-specification:'Courier Prime'"
         id="path16269" />
      <path
         d="m 312.1582,421.13281 q 1.59375,0 2.25,0.70313 0.70313,0.70312 0.70313,2.48437 0,1.78125 -0.70313,2.48438 -0.65625,0.70312 -2.25,0.70312 h -35.71875 q -1.59375,0 -2.29687,-0.70312 -0.65625,-0.70313 -0.65625,-2.48438 0,-1.78125 0.65625,-2.48437 0.70312,-0.70313 2.29687,-0.70313 z"
         style="font-family:'Courier Prime';-inkscape-font-specification:'Courier Prime'"
         id="path16271" />
      <path
         d="m 337.51758,449.58594 q 0,1.64062 -0.79688,2.34375 -0.75,0.70312 -2.71875,0.70312 -1.96875,0 -2.76562,-0.70312 -0.75,-0.70313 -0.75,-2.34375 v -14.0625 q 0,-1.64063 0.75,-2.34375 0.79687,-0.70313 2.76562,-0.70313 2.01563,0 2.71875,1.96875 1.92188,5.4375 6.09375,8.34375 4.17188,2.90625 10.35938,2.90625 3.09375,0 5.39062,-0.70312 2.34375,-0.70313 3.89063,-1.92188 1.54687,-1.26562 2.34375,-3 0.79687,-1.73437 0.79687,-3.79687 0,-3.09375 -1.59375,-4.92188 -1.54687,-1.82812 -4.17187,-2.95312 -2.15625,-0.89063 -4.78125,-1.45313 -2.625,-0.60937 -5.4375,-1.17187 -2.76563,-0.5625 -5.53125,-1.21875 -2.76563,-0.65625 -5.15625,-1.73438 -1.73438,-0.75 -3.1875,-1.82812 -1.45313,-1.07813 -2.53125,-2.53125 -1.03125,-1.45313 -1.64063,-3.375 -0.5625,-1.92188 -0.5625,-4.40625 0,-3.65625 1.35938,-6.5625 1.35937,-2.95313 3.75,-4.96875 2.4375,-2.0625 5.76562,-3.14063 3.375,-1.07812 7.35938,-1.07812 4.26562,0 8.0625,1.64062 3.79687,1.59375 6.46875,4.26563 v -2.85938 q 0,-1.64062 0.75,-2.34375 0.79687,-0.70312 2.76562,-0.70312 1.96875,0 2.71875,0.70312 0.79688,0.70313 0.79688,2.34375 v 10.78125 q 0,1.64063 -0.79688,2.34375 -0.75,0.70313 -2.71875,0.70313 -1.78125,0 -2.4375,-1.21875 -2.29687,-4.35938 -6.375,-6.51563 -4.07812,-2.20312 -9.23437,-2.20312 -5.25,0 -8.0625,2.4375 -2.76563,2.4375 -2.76563,6.375 0,2.01562 1.03125,3.32812 1.03125,1.26563 2.76563,2.15625 1.875,0.9375 4.35937,1.5 2.53125,0.5625 5.29688,1.125 2.76562,0.51563 5.625,1.17188 2.90625,0.60937 5.53125,1.64062 2.10937,0.84375 3.9375,2.0625 1.82812,1.21875 3.14062,3 1.35938,1.73438 2.10938,4.125 0.79687,2.34375 0.79687,5.48438 0,3.60937 -1.3125,6.65625 -1.26562,3 -3.79687,5.15625 -2.48438,2.15625 -6.1875,3.375 -3.70313,1.17187 -8.53125,1.17187 -4.6875,0 -8.71875,-1.6875 -3.98438,-1.6875 -6.9375,-5.01562 z"
         style="font-family:'Courier Prime';-inkscape-font-specification:'Courier Prime'"
         id="path16273" />
      <path
         d="m 398.5957,412.03906 v -14.0625 q 0,-1.64062 0.75,-2.34375 0.79688,-0.70312 2.76563,-0.70312 1.96875,0 2.71875,0.70312 0.79687,0.70313 0.79687,2.34375 v 14.0625 h 19.26563 q 1.59375,0 2.25,0.70313 0.70312,0.70312 0.70312,2.48437 0,1.78125 -0.70312,2.48438 -0.65625,0.70312 -2.25,0.70312 h -19.26563 v 17.0625 q 0,2.57813 0.42188,4.54688 0.42187,1.92187 1.35937,3.23437 0.98438,1.26563 2.57813,1.92188 1.59375,0.60937 3.9375,0.60937 3.28125,0 6.75,-1.3125 3.46875,-1.3125 6.5625,-3.32812 1.07812,-0.70313 2.15625,-0.32813 1.125,0.32813 2.01562,2.01563 0.89063,1.6875 0.5625,2.76562 -0.32812,1.03125 -1.5,1.78125 -1.78125,1.125 -3.84375,2.10938 -2.01562,0.9375 -4.17187,1.64062 -2.15625,0.70313 -4.35938,1.07813 -2.15625,0.42187 -4.17187,0.42187 -4.07813,0 -6.98438,-1.07812 -2.90625,-1.07813 -4.78125,-3.14063 -1.82812,-2.10937 -2.71875,-5.20312 -0.84375,-3.09375 -0.84375,-7.125 v -17.67188 h -9.51562 q -1.59375,0 -2.29688,-0.70312 -0.65625,-0.70313 -0.65625,-2.48438 0,-1.78125 0.65625,-2.48437 0.70313,-0.70313 2.29688,-0.70313 z"
         style="font-family:'Courier Prime';-inkscape-font-specification:'Courier Prime'"
         id="path16275" />
      <path
         d="m 489.5332,445.22656 q 1.59375,0 2.25,0.70313 0.70313,0.70312 0.70313,2.48437 0,1.78125 -0.70313,2.48438 -0.65625,0.70312 -2.25,0.70312 h -3 q -1.45312,0 -2.76562,-0.32812 -1.3125,-0.375 -2.39063,-1.125 -1.03125,-0.75 -1.82812,-1.875 -0.75,-1.125 -1.07813,-2.67188 -3.70312,3.23438 -8.15625,5.15625 -4.45312,1.875 -9.65625,1.875 -3.51562,0 -6.46875,-0.9375 -2.95312,-0.89062 -5.10937,-2.625 -2.15625,-1.78125 -3.375,-4.3125 -1.17188,-2.53125 -1.17188,-5.8125 0,-3.9375 1.5,-6.70312 1.54688,-2.76563 4.125,-4.45313 2.625,-1.73437 6.04688,-2.53125 3.46875,-0.79687 7.3125,-0.79687 3.79687,0 7.35937,0.60937 3.5625,0.60938 6.89063,1.78125 v -3.98437 q 0,-4.54688 -2.20313,-6.65625 -2.15625,-2.15625 -7.45312,-2.15625 -3.79688,0 -7.64063,1.03125 -3.79687,0.98437 -6.75,3.09375 -1.07812,0.79687 -2.20312,0.5625 -1.125,-0.23438 -2.15625,-1.6875 -1.03125,-1.45313 -0.84375,-2.57813 0.23437,-1.17187 1.3125,-1.96875 1.82812,-1.35937 4.03125,-2.34375 2.20312,-1.03125 4.54687,-1.64062 2.39063,-0.65625 4.82813,-0.9375 2.48437,-0.32813 4.875,-0.32813 8.39062,0 12.51562,3.9375 4.17188,3.9375 4.17188,11.67188 v 18.65625 q 0,3.70312 3.09375,3.70312 z m -11.76562,-12.04687 q -3.23438,-1.07813 -6.89063,-1.59375 -3.65625,-0.51563 -7.3125,-0.51563 -2.53125,0 -4.6875,0.42188 -2.10937,0.42187 -3.65625,1.35937 -1.54687,0.89063 -2.4375,2.39063 -0.84375,1.45312 -0.84375,3.5625 0,3.42187 2.34375,5.34375 2.39063,1.875 6.65625,1.875 5.01563,0 9.1875,-2.0625 4.17188,-2.10938 7.64063,-5.67188 z"
         style="font-family:'Courier Prime';-inkscape-font-specification:'Courier Prime'"
         id="path16277" />
      <path
         d="m 513.7207,412.03906 v -14.0625 q 0,-1.64062 0.75,-2.34375 0.79688,-0.70312 2.76563,-0.70312 1.96875,0 2.71875,0.70312 0.79687,0.70313 0.79687,2.34375 v 14.0625 h 19.26563 q 1.59375,0 2.25,0.70313 0.70312,0.70312 0.70312,2.48437 0,1.78125 -0.70312,2.48438 -0.65625,0.70312 -2.25,0.70312 h -19.26563 v 17.0625 q 0,2.57813 0.42188,4.54688 0.42187,1.92187 1.35937,3.23437 0.98438,1.26563 2.57813,1.92188 1.59375,0.60937 3.9375,0.60937 3.28125,0 6.75,-1.3125 3.46875,-1.3125 6.5625,-3.32812 1.07812,-0.70313 2.15625,-0.32813 1.125,0.32813 2.01562,2.01563 0.89063,1.6875 0.5625,2.76562 -0.32812,1.03125 -1.5,1.78125 -1.78125,1.125 -3.84375,2.10938 -2.01562,0.9375 -4.17187,1.64062 -2.15625,0.70313 -4.35938,1.07813 -2.15625,0.42187 -4.17187,0.42187 -4.07813,0 -6.98438,-1.07812 -2.90625,-1.07813 -4.78125,-3.14063 -1.82812,-2.10937 -2.71875,-5.20312 -0.84375,-3.09375 -0.84375,-7.125 v -17.67188 h -9.51562 q -1.59375,0 -2.29688,-0.70312 -0.65625,-0.70313 -0.65625,-2.48438 0,-1.78125 0.65625,-2.48437 0.70313,-0.70313 2.29688,-0.70313 z"
         style="font-family:'Courier Prime';-inkscape-font-specification:'Courier Prime'"
         id="path16279" />
      <path
         d="m 579.7207,414.66406 h -11.85937 q -1.59375,0 -2.29688,-0.70312 -0.65625,-0.70313 -0.65625,-2.48438 0,-1.78125 0.65625,-2.48437 0.70313,-0.70313 2.29688,-0.70313 h 15.9375 q 1.59375,0 2.25,0.70313 0.70312,0.70312 0.70312,2.48437 v 33.75 h 15.04688 q 1.59375,0 2.25,0.70313 0.70312,0.70312 0.70312,2.48437 0,1.78125 -0.70312,2.48438 -0.65625,0.70312 -2.25,0.70312 h -36.75 q -1.59375,0 -2.29688,-0.70312 -0.65625,-0.70313 -0.65625,-2.48438 0,-1.78125 0.65625,-2.48437 0.70313,-0.70313 2.29688,-0.70313 h 14.67187 z m 7.03125,-17.8125 q 0,1.64063 -0.89062,2.34375 -0.89063,0.70313 -3.5625,0.70313 -2.67188,0 -3.5625,-0.70313 -0.89063,-0.70312 -0.89063,-2.34375 v -6.09375 q 0,-1.64062 0.89063,-2.34375 0.89062,-0.70312 3.5625,-0.70312 2.67187,0 3.5625,0.70312 0.89062,0.70313 0.89062,2.34375 z"
         style="font-family:'Courier Prime';-inkscape-font-specification:'Courier Prime'"
         id="path16281" />
      <path
         d="m 653.0332,423.89844 q 0,-2.10938 -0.84375,-3.89063 -0.84375,-1.78125 -2.53125,-3.04687 -1.64062,-1.3125 -4.07812,-2.01563 -2.4375,-0.75 -5.67188,-0.75 -3.42187,0 -6.32812,1.17188 -2.85938,1.17187 -4.92188,3.28125 -2.0625,2.10937 -3.23437,5.01562 -1.17188,2.85938 -1.17188,6.28125 0,3.42188 1.07813,6.32813 1.07812,2.85937 3.04687,4.96875 2.01563,2.10937 4.82813,3.28125 2.8125,1.17187 6.23437,1.17187 4.3125,0 8.34375,-1.3125 4.03125,-1.3125 7.40625,-3.89062 1.21875,-0.9375 2.29688,-0.70313 1.07812,0.23438 2.0625,1.875 0.79687,1.26563 0.65625,2.625 -0.0937,1.35938 -1.45313,2.34375 -3.79687,2.8125 -8.85937,4.40625 -5.0625,1.59375 -10.45313,1.59375 -5.15625,0 -9.32812,-1.6875 -4.17188,-1.73437 -7.125,-4.78125 -2.95313,-3.04687 -4.54688,-7.17187 -1.59375,-4.17188 -1.59375,-9.04688 0,-4.875 1.64063,-9 1.64062,-4.17187 4.59375,-7.21875 3,-3.04687 7.125,-4.73437 4.17187,-1.73438 9.23437,-1.73438 4.26563,0 7.73438,1.54688 3.46875,1.5 5.85937,4.3125 v -2.8125 q 0,-1.64063 0.75,-2.34375 0.79688,-0.70313 2.76563,-0.70313 1.96875,0 2.71875,0.70313 0.79687,0.70312 0.79687,2.34375 v 13.59375 q 0,1.64062 -0.79687,2.34375 -0.75,0.70312 -2.71875,0.70312 -1.96875,0 -2.76563,-0.70312 -0.75,-0.70313 -0.75,-2.34375 z"
         style="font-family:'Courier Prime';-inkscape-font-specification:'Courier Prime'"
         id="path16283" />
      <path
         d="m 703.14258,429.00781 q -3.42188,-2.0625 -5.15625,-5.39062 -1.73438,-3.32813 -1.73438,-7.64063 v -7.82812 q 0,-6.28125 -2.34375,-8.95313 -2.34375,-2.71875 -7.59375,-2.71875 -1.59375,0 -2.29687,-0.70312 -0.65625,-0.70313 -0.65625,-2.48438 0,-1.78125 0.65625,-2.48437 0.70312,-0.70313 2.29687,-0.70313 8.20313,0 12.5625,4.3125 4.40625,4.26563 4.40625,13.17188 v 7.92187 q 0,5.10938 2.4375,7.73438 2.4375,2.625 7.64063,2.625 1.59375,0 2.25,0.70312 0.70312,0.70313 0.70312,2.48438 0,1.78125 -0.70312,2.48437 -0.65625,0.70313 -2.25,0.70313 -5.20313,0 -7.64063,2.625 -2.4375,2.57812 -2.4375,7.6875 v 9.98437 q 0,8.95313 -4.40625,13.21875 -4.35937,4.26563 -12.5625,4.26563 -1.59375,0 -2.29687,-0.70313 -0.65625,-0.70312 -0.65625,-2.48437 0,-1.78125 0.65625,-2.48438 0.70312,-0.70312 2.29687,-0.70312 5.25,0 7.59375,-2.71875 2.34375,-2.67188 2.34375,-8.95313 v -9.89062 q 0,-4.3125 1.73438,-7.64063 1.73437,-3.375 5.15625,-5.4375 z"
         style="font-family:'Courier Prime';-inkscape-font-specification:'Courier Prime'"
         id="path16285" />
    </g>
  </g>
</svg>
