<?xml version="1.0" encoding="UTF-8" standalone="no"?>
<!-- Created with Inkscape (http://www.inkscape.org/) -->

<svg
   width="102.74281mm"
   height="66.802002mm"
   viewBox="0 0 102.74281 66.802002"
   version="1.1"
   id="svg829"
   xmlns="http://www.w3.org/2000/svg"
   xmlns:svg="http://www.w3.org/2000/svg"
   xmlns:rdf="http://www.w3.org/1999/02/22-rdf-syntax-ns#"
   xmlns:cc="http://creativecommons.org/ns#"
   xmlns:dc="http://purl.org/dc/elements/1.1/">
  <title
     id="title13013">{L} Lib-Static logo</title>
  <defs
     id="defs826">
    <rect
       x="122.15277"
       y="401.17542"
       width="684.05554"
       height="415.31943"
       id="rect2234" />
  </defs>
  <g
     id="layer1"
     transform="translate(-38.859974,-110.8637)">
    <g
       aria-label="{L}"
       transform="scale(0.26458333)"
       id="text2232"
       style="font-size:240px;line-height:1.25;white-space:pre;shape-inside:url(#rect2234)">
      <path
         d="m 221.51234,671.49242 q -22.44,0 -35.16,-9.48 -12.6,-9.48 -12.6,-27.72 0,-2.76 0.72,-6.48 0.84,-3.72 2.64,-10.44 2.4,-9.12 3.6,-15 1.2,-6.12 2.52,-11.64 0.96,-3.96 1.44,-6.96 0.6,-3.12 0.6,-5.4 0,-6.72 -3.96,-11.16 -3.96,-4.44 -12.24,-7.44 -8.16,-3 -22.2,-5.64 v -16.8 q 14.28,-3.36 22.44,-6.48 8.16,-3.24 12,-7.56 3.96,-4.44 3.96,-10.92 0,-3.72 -1.08,-9.12 -1.08,-5.4 -3.48,-14.64 l -1.44,-5.64 q -2.76,-10.8 -4.2,-17.04 -1.32,-6.36 -1.32,-9.72 0,-18.24 12.6,-27.72 12.72,-9.48 35.16,-9.48 4.68,0 10.44,0.72 5.88,0.6 10.68,1.92 v 18.48 q -6.48,-0.96 -11.64,-1.68 -5.04,-0.72 -7.32,-0.72 -10.56,0 -17.4,5.04 -6.84,5.04 -6.84,15.36 0,3.48 0.96,9 1.08,5.52 3.6,16.68 l 0.72,2.88 q 3.12,13.56 3.12,26.16 0,12.96 -5.28,20.4 -5.28,7.44 -17.04,11.04 v 1.2 q 11.52,4.08 17.64,12.48 6.12,8.4 6.12,18.84 0,5.4 -0.96,10.92 -0.96,5.52 -3.6,16.56 l -2.04,8.16 q -1.92,7.2 -2.76,11.64 -0.72,4.56 -0.48,9.24 0.24,5.88 3.6,10.32 3.48,4.56 8.88,6.96 5.52,2.4 11.76,2.4 4.92,0 18.96,-2.16 v 18.24 q -3.84,1.08 -9.96,1.68 -6.12,0.72 -11.16,0.72 z"
         style="font-weight:bold;font-family:JuliaMono;-inkscape-font-specification:'JuliaMono Bold'"
         id="path12977" />
      <path
         d="m 284.63198,448.53242 h 31.2 v 147.6 h 80.64 v 26.64 h -111.84 z"
         style="font-weight:bold;font-family:JuliaMono;-inkscape-font-specification:'JuliaMono Bold'"
         id="path12979" />
      <path
         d="m 460.55161,671.49242 q -5.04,0 -11.16,-0.72 -6.12,-0.6 -9.96,-1.68 v -18.24 q 14.04,2.16 18.96,2.16 6.24,0 11.64,-2.4 5.52,-2.4 8.88,-6.96 3.48,-4.44 3.72,-10.32 0.24,-4.68 -0.6,-9.24 -0.72,-4.44 -2.64,-11.64 l -2.04,-8.16 q -2.64,-11.04 -3.6,-16.56 -0.96,-5.52 -0.96,-10.92 0,-10.44 6.12,-18.84 6.12,-8.4 17.64,-12.48 v -1.2 q -11.76,-3.6 -17.04,-11.04 -5.28,-7.44 -5.28,-20.4 0,-12.6 3.12,-26.16 l 0.72,-2.88 q 2.52,-11.16 3.48,-16.68 1.08,-5.52 1.08,-9 0,-10.32 -6.84,-15.36 -6.84,-5.04 -17.4,-5.04 -2.28,0 -7.44,0.72 -5.04,0.72 -11.52,1.68 v -18.48 q 4.8,-1.32 10.56,-1.92 5.88,-0.72 10.56,-0.72 22.44,0 35.04,9.48 12.72,9.48 12.72,27.72 0,3.36 -1.44,9.72 -1.32,6.24 -4.08,17.04 l -1.44,5.64 q -2.4,9.24 -3.48,14.64 -1.08,5.4 -1.08,9.12 0,6.48 3.84,10.92 3.96,4.32 12.12,7.56 8.16,3.12 22.44,6.48 v 16.8 q -14.04,2.64 -22.32,5.64 -8.16,3 -12.12,7.44 -3.96,4.44 -3.96,11.16 0,2.28 0.48,5.4 0.6,3 1.56,6.96 1.32,5.52 2.52,11.64 1.2,5.88 3.6,15 1.8,6.72 2.52,10.44 0.84,3.72 0.84,6.48 0,18.24 -12.72,27.72 -12.6,9.48 -35.04,9.48 z"
         style="font-weight:bold;font-family:JuliaMono;-inkscape-font-specification:'JuliaMono Bold'"
         id="path12981" />
    </g>
  </g>
  <metadata
     id="metadata13011">
    <rdf:RDF>
      <cc:Work
         rdf:about="">
        <dc:title>{L} Lib-Static logo</dc:title>
      </cc:Work>
    </rdf:RDF>
  </metadata>
</svg>
