<?xml version="1.0" encoding="UTF-8" standalone="no"?>
<!-- Created with Inkscape (http://www.inkscape.org/) -->

<svg
   width="161.77477mm"
   height="25.16909mm"
   viewBox="0 0 161.77477 25.16909"
   version="1.1"
   id="svg5"
   sodipodi:docname="lib-static-text-vm.svg"
   inkscape:version="1.1.1 (3bf5ae0d25, 2021-09-20)"
   xmlns:inkscape="http://www.inkscape.org/namespaces/inkscape"
   xmlns:sodipodi="http://sodipodi.sourceforge.net/DTD/sodipodi-0.dtd"
   xmlns="http://www.w3.org/2000/svg"
   xmlns:svg="http://www.w3.org/2000/svg">
  <sodipodi:namedview
     id="namedview9"
     pagecolor="#ffffff"
     bordercolor="#666666"
     borderopacity="1.0"
     inkscape:pageshadow="2"
     inkscape:pageopacity="0.0"
     inkscape:pagecheckerboard="0"
     inkscape:document-units="mm"
     showgrid="false"
     inkscape:zoom="1.8232942"
     inkscape:cx="346.35112"
     inkscape:cy="42.505482"
     inkscape:window-width="2560"
     inkscape:window-height="1361"
     inkscape:window-x="2551"
     inkscape:window-y="-9"
     inkscape:window-maximized="1"
     inkscape:current-layer="svg5" />
  <defs
     id="defs2">
    <rect
       x="35.266663"
       y="366.66492"
       width="732.03876"
       height="312.04019"
       id="rect2102" />
  </defs>
  <g
     id="layer1"
     transform="translate(-11.571031,-99.063586)">
    <g
       aria-label="{Lib-Static}"
       transform="scale(0.26458333)"
       id="text2100"
       style="font-size:96px;line-height:1.25;white-space:pre;shape-inside:url(#rect2102)">
      <path
         d="m 79.776669,469.54083 q -12.916364,0 -18.763636,-4.53818 -5.847273,-4.45091 -5.847273,-14.31273 0,-2.96727 0.872727,-7.85454 0.698182,-4.36364 0.698182,-5.93455 0,-1.65818 -3.054545,-5.06182 -3.054546,-3.40363 -9.949091,-9.86182 6.894545,-6.63272 9.949091,-10.03636 3.054545,-3.40364 3.054545,-5.23636 0,-1.48364 -0.698182,-5.32364 -0.872727,-4.53818 -0.872727,-8.02909 0,-9.86182 5.847273,-14.4 5.847272,-4.53818 18.763636,-4.53818 v 9.33818 q -5.585455,0 -8.727273,0.96 -3.141818,0.87273 -4.538182,3.05454 -1.396363,2.09455 -1.396363,5.93455 0,3.05455 0.872727,6.72 0.785455,3.14182 0.785455,5.41091 0,4.27636 -2.356364,8.20364 -2.356364,3.84 -7.418182,7.94181 5.149091,4.01455 7.418182,7.76728 2.356364,3.75272 2.356364,8.02909 0,2.00727 -0.698182,5.32363 -0.872727,4.01455 -0.872727,7.33091 0,3.75273 1.30909,5.84728 1.396364,2.09454 4.538182,2.96727 3.141818,0.96 8.727273,0.96 z"
         style="font-weight:bold;font-family:'Victor Mono';-inkscape-font-specification:'Victor Mono Bold'"
         id="path6802" />
      <path
         d="M 134.67116,456.88628 H 95.398437 V 387.0681 H 105.4348 v 60.56728 h 29.23636 z"
         style="font-weight:bold;font-family:'Victor Mono';-inkscape-font-specification:'Victor Mono Bold'"
         id="path6804" />
      <path
         d="m 173.50748,402.95174 v 44.68364 h 15.27273 v 9.2509 h -40.58182 v -9.2509 h 15.27272 v -35.43273 h -10.99636 v -9.25091 z m -6.89455,-7.85455 q -4.36363,0 -6.02182,-1.48363 -1.5709,-1.57091 -1.5709,-5.67273 0,-4.10182 1.5709,-5.58545 1.65819,-1.57091 6.02182,-1.57091 4.36364,0 6.02182,1.57091 1.65818,1.48363 1.65818,5.58545 0,4.10182 -1.65818,5.67273 -1.65818,1.48363 -6.02182,1.48363 z"
         style="font-weight:bold;font-family:'Victor Mono';-inkscape-font-specification:'Victor Mono Bold'"
         id="path6806" />
      <path
         d="m 219.58743,458.1081 q -7.68,0 -12.39273,-2.00727 -4.62545,-2.09455 -8.64,-7.24364 V 387.0681 h 10.03636 v 16.58182 q 5.06182,-1.92 10.99637,-1.92 7.85454,0 12.39273,2.88 4.62545,2.88 6.63272,8.98909 2.00728,6.10909 2.00728,16.40727 0,10.21091 -2.00728,16.32 -2.00727,6.1091 -6.63272,8.9891 -4.53819,2.79272 -12.39273,2.79272 z m 0,-9.25091 q 4.27636,0 6.63273,-1.65818 2.35636,-1.74545 3.31636,-5.76 1.04727,-4.01454 1.04727,-11.43273 0,-7.41818 -1.04727,-11.43272 -0.96,-4.10182 -3.31636,-5.84728 -2.35637,-1.74545 -6.63273,-1.74545 -4.53818,0 -6.89455,1.04727 -2.26909,0.96 -3.22909,3.57818 -0.87273,2.61819 -0.87273,7.76728 v 22.25454 q 2.09455,1.92 4.36364,2.61818 2.26909,0.61091 6.63273,0.61091 z"
         style="font-weight:bold;font-family:'Victor Mono';-inkscape-font-specification:'Victor Mono Bold'"
         id="path6808" />
      <path
         d="m 289.49283,426.60265 h -37.09091 v -9.25091 h 37.09091 z"
         style="font-weight:bold;font-family:'Victor Mono';-inkscape-font-specification:'Victor Mono Bold'"
         id="path6810" />
      <path
         d="m 323.26733,458.1081 q -6.63273,0 -10.99637,-1.22182 -4.27636,-1.13454 -7.24363,-3.84 -2.88,-2.79272 -5.14909,-7.59272 l 7.76727,-7.33091 q 1.57091,4.53818 3.14182,6.72 1.57091,2.18182 4.36363,3.14182 2.79273,0.87272 8.11637,0.87272 5.06182,0 7.68,-1.04727 2.61818,-1.13454 3.66545,-3.66545 1.04728,-2.53091 1.04728,-7.41819 0,-3.57818 -1.13455,-5.49818 -1.13455,-1.92 -3.75273,-3.22909 -2.61818,-1.39636 -8.37818,-3.31636 -7.94182,-2.61818 -12.21818,-5.06182 -4.18909,-2.44364 -6.10909,-5.76 -1.92,-3.31636 -1.92,-8.64 0,-7.06909 2.00727,-11.25818 2.09455,-4.27637 6.63273,-6.19637 4.62545,-1.92 12.48,-1.92 6.10909,0 10.03636,1.04728 4.01455,1.04727 6.80727,3.49091 2.79273,2.35636 5.06182,6.63272 l -7.15636,7.76728 q -1.65818,-4.18909 -3.14182,-6.10909 -1.48364,-2.00728 -4.10182,-2.79273 -2.61818,-0.78546 -7.50545,-0.78546 -4.62546,0 -6.98182,0.87273 -2.26909,0.87273 -3.22909,3.05455 -0.87273,2.09454 -0.87273,6.19636 0,3.05455 0.96,4.62545 0.96,1.57091 3.22909,2.70546 2.35637,1.04727 7.68,2.70545 8.37818,2.61819 12.91637,5.23637 4.62545,2.61818 6.63272,6.45818 2.09455,3.75273 2.09455,9.77454 0,7.85455 -2.18182,12.48 -2.18182,4.62546 -7.06909,6.80728 -4.8,2.09454 -13.17818,2.09454 z"
         style="font-weight:bold;font-family:'Victor Mono';-inkscape-font-specification:'Victor Mono Bold'"
         id="path6812" />
      <path
         d="m 381.30364,458.1081 q -6.37091,0 -10.21091,-2.18182 -3.84,-2.18181 -5.67272,-6.89454 -1.74546,-4.8 -1.74546,-12.56727 v -25.30909 h -10.82182 v -9.25091 h 10.82182 V 387.0681 h 10.03636 v 14.83637 h 18.06546 v 9.25091 h -18.06546 v 25.30909 q 0,4.88727 0.69819,7.59272 0.69818,2.61819 2.26909,3.75273 1.65818,1.04727 4.62545,1.04727 3.22909,0 4.62546,-0.43636 1.48363,-0.43636 2.09454,-1.57091 0.69818,-1.13454 1.57091,-3.92727 l 9.42546,3.22909 q -1.3091,4.53818 -3.40364,7.15636 -2.09455,2.53091 -5.49818,3.66546 -3.31637,1.13454 -8.81455,1.13454 z"
         style="font-weight:bold;font-family:'Victor Mono';-inkscape-font-specification:'Victor Mono Bold'"
         id="path6814" />
      <path
         d="m 425.72541,458.1081 q -7.68,0 -12.30545,-1.74545 -4.53819,-1.74546 -6.63273,-5.41091 -2.00727,-3.75273 -2.00727,-9.94909 0,-6.98182 2.00727,-10.73455 2.00727,-3.84 6.45818,-5.32363 4.53818,-1.57091 12.48,-1.57091 h 10.99636 v -1.92 q 0,-3.66546 -0.96,-5.67273 -0.87272,-2.00727 -3.22909,-2.79273 -2.35636,-0.87272 -6.80727,-0.87272 -3.66545,0 -5.58545,0.78545 -1.92,0.69818 -2.96728,2.61818 -1.04727,1.92 -2.00727,5.84727 l -9.6,-2.35636 q 1.57091,-6.19636 3.92727,-9.94909 2.35637,-3.75273 6.28364,-5.49818 3.92727,-1.83273 9.94909,-1.83273 11.34545,0 16.14545,4.88727 4.88728,4.8 4.88728,14.83637 v 20.42182 q 0,3.57818 0.69818,4.71272 0.69818,1.13455 2.96727,1.13455 0.69818,0 3.14182,-0.17455 v 9.25091 q -1.04727,0.0873 -2.88,0.0873 -7.59273,0 -10.47273,-3.4909 -2.35636,2.5309 -5.84727,3.57818 -3.49091,1.13454 -8.64,1.13454 z m 0,-9.25091 q 4.45091,0 6.80727,-1.04727 2.35637,-1.04727 3.22909,-3.57818 0.96,-2.53091 0.96,-7.33091 v -4.27636 h -10.99636 q -4.97455,0 -7.06909,0.52363 -2.09455,0.43637 -2.96727,2.18182 -0.87273,1.65818 -0.87273,5.67273 0,3.22909 0.87273,4.88727 0.87272,1.57091 3.14181,2.26909 2.35637,0.69818 6.89455,0.69818 z"
         style="font-weight:bold;font-family:'Victor Mono';-inkscape-font-specification:'Victor Mono Bold'"
         id="path6816" />
      <path
         d="m 486.03081,458.1081 q -6.3709,0 -10.2109,-2.18182 -3.84,-2.18181 -5.67273,-6.89454 -1.74546,-4.8 -1.74546,-12.56727 v -25.30909 h -10.82181 v -9.25091 h 10.82181 V 387.0681 h 10.03637 v 14.83637 h 18.06545 v 9.25091 h -18.06545 v 25.30909 q 0,4.88727 0.69818,7.59272 0.69818,2.61819 2.26909,3.75273 1.65818,1.04727 4.62545,1.04727 3.2291,0 4.62546,-0.43636 1.48364,-0.43636 2.09454,-1.57091 0.69819,-1.13454 1.57091,-3.92727 l 9.42546,3.22909 q -1.30909,4.53818 -3.40364,7.15636 -2.09454,2.53091 -5.49818,3.66546 -3.31636,1.13454 -8.81455,1.13454 z"
         style="font-weight:bold;font-family:'Victor Mono';-inkscape-font-specification:'Victor Mono Bold'"
         id="path6818" />
      <path
         d="m 540.05258,402.95174 v 44.68364 h 15.27273 v 9.2509 h -40.58182 v -9.2509 h 15.27273 v -35.43273 h -10.99636 v -9.25091 z m -6.89454,-7.85455 q -4.36364,0 -6.02182,-1.48363 -1.57091,-1.57091 -1.57091,-5.67273 0,-4.10182 1.57091,-5.58545 1.65818,-1.57091 6.02182,-1.57091 4.36363,0 6.02182,1.57091 1.65818,1.48363 1.65818,5.58545 0,4.10182 -1.65818,5.67273 -1.65819,1.48363 -6.02182,1.48363 z"
         style="font-weight:bold;font-family:'Victor Mono';-inkscape-font-specification:'Victor Mono Bold'"
         id="path6820" />
      <path
         d="m 586.65617,458.1081 q -8.72727,0 -13.78909,-2.79272 -5.06182,-2.88 -7.33091,-8.9891 -2.18182,-6.10909 -2.18182,-16.40727 0,-10.29818 2.18182,-16.40727 2.26909,-6.10909 7.41818,-8.90182 5.14909,-2.88 14.05091,-2.88 7.59273,0 12.13091,2.70546 4.53818,2.70545 8.72727,9.6 l -8.37818,4.97454 q -2.18182,-3.40364 -3.75273,-5.06182 -1.57091,-1.65818 -3.57818,-2.26909 -1.92,-0.69818 -5.14909,-0.69818 -5.41091,0 -8.37818,1.74545 -2.88,1.65819 -4.10182,5.67273 -1.13454,4.01455 -1.13454,11.52 0,7.50546 1.13454,11.52 1.22182,4.01455 4.01455,5.76 2.79272,1.65818 8.11636,1.65818 3.14182,0 5.14909,-0.69818 2.09455,-0.69818 3.75273,-2.35636 1.74545,-1.74546 4.01454,-5.14909 l 8.29091,5.06182 q -4.36363,6.98181 -8.98909,9.68727 -4.53818,2.70545 -12.21818,2.70545 z"
         style="font-weight:bold;font-family:'Victor Mono';-inkscape-font-specification:'Victor Mono Bold'"
         id="path6822" />
      <path
         d="m 619.12157,460.20265 q 5.58546,0 8.72728,-0.96 3.14182,-0.87273 4.53818,-2.96727 1.39636,-2.09455 1.39636,-5.84728 0,-3.31636 -0.87272,-7.33091 -0.69819,-3.31636 -0.69819,-5.32363 0,-4.27637 2.26909,-8.02909 2.2691,-3.75273 7.41819,-7.76728 -5.06182,-4.01454 -7.41819,-7.85454 -2.26909,-3.92727 -2.26909,-8.29091 0,-2.26909 0.78546,-5.41091 0.87273,-3.66545 0.87273,-6.72 0,-3.84 -1.39637,-5.93455 -1.39636,-2.18181 -4.62545,-3.05454 -3.14182,-0.96 -8.72728,-0.96 v -9.33818 q 12.91637,0 18.76364,4.53818 5.93455,4.53818 5.93455,14.4 0,3.49091 -0.87273,8.02909 -0.69818,3.84 -0.69818,5.32364 0,1.83272 3.05454,5.32363 3.05455,3.49091 9.86182,9.94909 -6.72,6.28364 -9.86182,9.77455 -3.05454,3.49091 -3.05454,5.14909 0,1.57091 0.69818,5.93455 0.87273,4.88727 0.87273,7.85454 0,9.86182 -5.93455,14.31273 -5.84727,4.53818 -18.76364,4.53818 z"
         style="font-weight:bold;font-family:'Victor Mono';-inkscape-font-specification:'Victor Mono Bold'"
         id="path6824" />
    </g>
  </g>
</svg>
