<?xml version="1.0" encoding="UTF-8" standalone="no"?>
<!-- Created with Inkscape (http://www.inkscape.org/) -->

<svg
   width="89.407684mm"
   height="59.210129mm"
   viewBox="0 0 89.407684 59.210129"
   version="1.1"
   id="svg839"
   sodipodi:docname="lib-static-logo-jm2.svg"
   inkscape:version="1.1.1 (3bf5ae0d25, 2021-09-20)"
   xmlns:inkscape="http://www.inkscape.org/namespaces/inkscape"
   xmlns:sodipodi="http://sodipodi.sourceforge.net/DTD/sodipodi-0.dtd"
   xmlns="http://www.w3.org/2000/svg"
   xmlns:svg="http://www.w3.org/2000/svg">
  <sodipodi:namedview
     id="namedview841"
     pagecolor="#ffffff"
     bordercolor="#666666"
     borderopacity="1.0"
     inkscape:pageshadow="2"
     inkscape:pageopacity="0.0"
     inkscape:pagecheckerboard="0"
     inkscape:document-units="mm"
     showgrid="false"
     inkscape:zoom="0.77771465"
     inkscape:cx="193.51571"
     inkscape:cy="229.51863"
     inkscape:window-width="2560"
     inkscape:window-height="1361"
     inkscape:window-x="2551"
     inkscape:window-y="-9"
     inkscape:window-maximized="1"
     inkscape:current-layer="layer1" />
  <defs
     id="defs836">
    <rect
       x="75.863304"
       y="354.88596"
       width="861.49847"
       height="416.60526"
       id="rect2640" />
  </defs>
  <g
     inkscape:label="Layer 1"
     inkscape:groupmode="layer"
     id="layer1"
     transform="translate(-26.845482,-98.261349)">
    <g
       aria-label="{L}"
       transform="scale(0.26458333)"
       id="text2638"
       style="font-size:213.333px;line-height:1.25;white-space:pre;shape-inside:url(#rect2640)">
      <path
         d="m 164.18314,595.16779 q -19.19997,0 -29.43995,-7.99999 -10.23999,-7.99998 -10.23999,-23.78662 0,-2.88 0.85334,-6.82666 0.85333,-3.83999 2.77332,-11.51998 l 2.56,-10.02665 q 3.62666,-15.03998 3.62666,-21.75997 0,-6.50665 -3.09333,-10.23998 -2.98666,-3.73333 -8.74665,-6.07999 -5.65332,-2.34666 -18.1333,-6.07999 l -2.88,-0.85333 v -12.79998 q 1.92,-0.64 2.88,-0.85334 12.47998,-3.94666 18.1333,-6.39999 5.75999,-2.45332 8.74665,-6.18665 3.09333,-3.84 3.09333,-10.23999 0,-6.29332 -3.62666,-21.75996 l -2.13333,-8.74665 q -2.02666,-8.10666 -3.09333,-12.58665 -0.96,-4.47999 -0.96,-7.25332 0,-15.78664 10.23999,-23.78663 10.23998,-7.99999 29.43995,-7.99999 3.51999,0 8.63999,0.53333 5.11999,0.53334 8.85332,1.38667 v 14.29331 l -4.05333,-0.64 q -9.17332,-1.28 -11.51998,-1.28 -5.22666,0 -10.66665,2.02667 -5.43999,1.91999 -9.17332,6.29332 -3.62666,4.26666 -3.62666,10.87998 0,2.56 0.85333,6.82666 0.85333,4.15999 2.66666,11.41331 l 1.81333,7.78666 q 1.81333,7.46665 2.24,12.79998 0.53333,5.33332 0.53333,10.45331 0,11.30665 -4.47999,18.45331 -4.37333,7.03999 -14.50664,10.55998 6.71998,2.56 11.73331,7.67999 5.01333,5.11999 7.46665,11.09331 2.56,5.86666 2.34667,10.45332 -0.10667,3.41333 -0.64,5.86666 -0.53333,2.34666 -1.70667,6.07999 -2.13333,7.46665 -2.98666,11.73331 -0.85333,4.16 -2.87999,10.98665 -1.38667,4.69333 -2.02667,7.46666 -0.53333,2.87999 -0.53333,6.18665 0,1.70667 0.10667,2.66667 0.42666,4.58665 4.37332,8.63998 3.94666,4.16 9.38666,6.61332 5.43999,2.45333 9.70665,2.45333 4.37332,0 15.57331,-1.91999 v 13.86664 q -3.2,0.85333 -8.31999,1.49333 -5.11999,0.64 -9.17332,0.64 z"
         style="font-family:JuliaMono;-inkscape-font-specification:JuliaMono"
         id="path25795" />
      <path
         d="m 224.12939,396.76811 h 18.7733 v 139.51978 h 75.73321 v 15.5733 h -94.50651 z"
         style="font-family:JuliaMono;-inkscape-font-specification:JuliaMono"
         id="path25797" />
      <path
         d="m 376.66216,595.16779 q -4.05333,0 -9.17332,-0.64 -5.11999,-0.64 -8.31999,-1.49333 v -13.86664 q 11.19998,1.91999 15.57331,1.91999 4.26666,0 9.70665,-2.45333 5.43999,-2.45332 9.38665,-6.61332 3.94666,-4.05333 4.37333,-8.63998 0.10667,-0.96 0.10667,-2.66667 0,-3.30666 -0.64,-6.18665 -0.53334,-2.77333 -1.92,-7.46666 -2.02666,-6.82665 -2.88,-10.98665 -0.85333,-4.26666 -2.98666,-11.73331 -1.17333,-3.73333 -1.70666,-6.07999 -0.53333,-2.45333 -0.64,-5.86666 -0.21333,-4.58666 2.24,-10.45332 2.55999,-5.97332 7.57332,-11.09331 5.01332,-5.11999 11.73331,-7.67999 -10.13332,-3.51999 -14.61331,-10.55998 -4.37332,-7.14666 -4.37332,-18.45331 0,-5.11999 0.42666,-10.45331 0.53333,-5.33333 2.34666,-12.79998 l 1.81333,-7.78666 q 1.81334,-7.25332 2.66667,-11.41331 0.85333,-4.26666 0.85333,-6.82666 0,-6.61332 -3.73333,-10.87998 -3.62666,-4.37333 -9.06665,-6.29332 -5.43999,-2.02667 -10.66665,-2.02667 -2.34666,0 -11.51998,1.28 l -4.05333,0.64 v -14.29331 q 3.73333,-0.85333 8.85332,-1.38667 5.22666,-0.53333 8.63999,-0.53333 19.19997,0 29.43995,7.99999 10.23998,7.99999 10.23998,23.78663 0,2.77333 -1.06666,7.25332 -0.96,4.47999 -2.98666,12.58665 l -2.13333,8.74665 q -3.62666,15.46664 -3.62666,21.75996 0,6.39999 2.98666,10.23999 3.09333,3.73333 8.74665,6.18665 5.75999,2.45333 18.23997,6.39999 0.96,0.21334 2.88,0.85334 v 12.79998 l -2.88,0.85333 q -12.47998,3.73333 -18.23997,6.07999 -5.65332,2.34666 -8.74665,6.07999 -2.98666,3.73333 -2.98666,10.23998 0,6.71999 3.62666,21.75997 l 2.55999,10.02665 q 1.92,7.67999 2.77333,11.51998 0.85333,3.94666 0.85333,6.82666 0,15.78664 -10.23998,23.78662 -10.23998,7.99999 -29.43995,7.99999 z"
         style="font-family:JuliaMono;-inkscape-font-specification:JuliaMono"
         id="path25799" />
    </g>
  </g>
</svg>
