<?xml version="1.0" standalone="no"?>
<!DOCTYPE svg PUBLIC "-//W3C//DTD SVG 20010904//EN"
 "http://www.w3.org/TR/2001/REC-SVG-20010904/DTD/svg10.dtd">
<svg version="1.0" xmlns="http://www.w3.org/2000/svg"
 width="260.000000pt" height="260.000000pt" viewBox="0 0 260.000000 260.000000"
 preserveAspectRatio="xMidYMid meet">
<metadata>
Created by potrace 1.11, written by Peter Selinger 2001-2013
</metadata>
<g transform="translate(0.000000,260.000000) scale(0.100000,-0.100000)"
fill="#000000" stroke="none">
<path d="M1260 2106 c0 -2 8 -10 18 -17 15 -13 16 -12 3 4 -13 16 -21 21 -21
13z"/>
<path d="M188 2093 c7 -3 16 -2 19 1 4 3 -2 6 -13 5 -11 0 -14 -3 -6 -6z"/>
<path d="M370 2080 c0 -5 6 -10 14 -10 8 0 18 5 21 10 3 6 -3 10 -14 10 -12 0
-21 -4 -21 -10z"/>
<path d="M710 2070 c0 -5 7 -10 15 -10 8 0 15 5 15 10 0 6 -7 10 -15 10 -8 0
-15 -4 -15 -10z"/>
<path d="M1203 2065 c-7 -8 -9 -16 -4 -19 5 -3 12 1 15 10 8 22 4 25 -11 9z"/>
<path d="M354 2063 c4 -7 2 -13 -3 -13 -6 0 -11 -4 -11 -10 0 -12 27 -13 34
-1 3 5 -2 15 -11 22 -12 10 -14 10 -9 2z"/>
<path d="M140 2030 c0 -11 4 -20 10 -20 5 0 14 9 20 20 9 17 8 20 -10 20 -13
0 -20 -7 -20 -20z"/>
<path d="M17 2019 c-3 -9 -1 -21 3 -26 4 -4 13 -30 19 -57 7 -28 21 -57 31
-66 11 -10 17 -20 14 -23 -4 -3 12 -27 35 -53 22 -26 41 -52 41 -59 0 -7 14
-29 30 -50 17 -21 30 -44 30 -51 0 -8 4 -14 8 -14 5 0 22 -26 38 -57 16 -32
59 -103 95 -158 37 -55 77 -123 89 -152 14 -34 38 -65 66 -88 31 -26 44 -44
44 -62 0 -14 11 -41 25 -59 14 -18 24 -43 23 -55 -2 -15 5 -27 19 -34 34 -17
82 -83 95 -129 6 -23 15 -45 20 -51 11 -13 10 -27 -2 -20 -5 3 -10 1 -10 -6 0
-7 10 -9 25 -7 19 4 26 0 31 -16 4 -12 16 -34 27 -49 15 -22 18 -39 15 -71 -6
-52 5 -76 36 -76 13 0 31 -9 41 -20 10 -11 28 -20 41 -20 13 0 26 -5 29 -10 7
-11 54 -3 70 11 5 5 29 9 55 10 25 0 66 4 93 8 26 4 47 5 47 2 0 -4 18 -5 40
-3 29 3 55 -3 94 -22 62 -30 62 -30 118 -12 31 11 98 15 243 16 282 2 573 -8
595 -20 10 -5 52 -10 93 -10 66 0 76 3 95 25 12 14 28 25 36 25 14 0 26 20 26
43 0 6 -7 1 -16 -11 -8 -12 -20 -20 -25 -16 -6 3 -3 12 8 20 10 7 13 14 6 14
-10 0 -10 7 -2 28 18 44 12 104 -13 127 -15 13 -18 14 -9 3 8 -10 10 -18 6
-18 -4 0 -3 -6 2 -12 5 -7 10 -28 11 -45 2 -26 -1 -31 -14 -26 -9 3 -20 0 -25
-8 -8 -12 -10 -12 -8 1 4 40 -3 42 -26 7 -14 -20 -28 -37 -31 -37 -3 0 2 10
10 22 20 28 21 44 1 28 -17 -14 -20 -3 -5 20 5 8 12 11 16 7 4 -4 18 2 30 14
22 21 23 21 17 1 -2 -11 0 -23 6 -26 12 -8 15 22 4 49 -5 15 -8 15 -24 -6 -17
-23 -17 -23 -40 -4 -12 11 -20 15 -16 9 3 -6 0 -20 -8 -30 -13 -17 -14 -18
-15 -1 0 9 4 17 10 17 5 0 7 7 4 15 -4 8 -1 15 5 15 6 0 11 5 11 11 0 8 -4 8
-13 0 -10 -8 -17 -7 -25 1 -7 7 -12 8 -12 2 0 -5 5 -15 10 -20 7 -7 0 -9 -20
-8 -17 1 -33 -2 -36 -7 -3 -5 -9 -7 -14 -4 -5 3 -12 0 -16 -6 -4 -8 -3 -9 4
-5 16 10 14 -5 -3 -28 -15 -20 -15 -20 -15 0 0 17 -3 16 -20 -6 -11 -14 -20
-20 -20 -15 0 6 5 16 11 22 13 13 4 33 -14 33 -7 0 -6 -4 3 -10 11 -7 9 -11
-13 -19 -38 -15 -57 -13 -30 2 16 9 20 16 13 27 -8 13 -10 12 -10 -2 0 -20
-20 -25 -20 -5 -1 6 -10 1 -20 -12 -12 -14 -20 -18 -20 -10 -1 8 -7 3 -14 -11
-8 -14 -13 -27 -11 -31 2 -3 -2 -6 -9 -6 -8 0 4 29 30 74 53 88 107 194 102
198 -2 2 -17 -22 -33 -53 -35 -66 -79 -136 -112 -175 -35 -43 -28 -19 12 42
22 33 32 57 26 61 -6 3 -12 16 -14 28 -2 12 -7 25 -11 29 -5 5 -6 -5 -2 -22
12 -52 11 -60 -19 -107 -31 -49 -50 -64 -60 -47 -4 5 -1 8 7 7 8 -2 12 5 11
19 -2 13 1 22 5 22 20 -3 32 2 32 15 0 11 -5 12 -25 3 -14 -7 -25 -15 -25 -19
0 -5 -5 -8 -11 -8 -18 0 12 31 46 47 29 13 28 14 -25 8 -30 -3 -59 -10 -63
-14 -5 -5 1 -27 12 -49 27 -52 26 -60 -1 -36 -12 10 -18 13 -13 5 5 -10 4 -12
-4 -7 -6 4 -10 20 -9 36 1 15 -4 35 -11 44 -11 13 -11 19 -1 31 7 8 9 15 4 15
-5 0 -18 -13 -29 -29 -11 -17 -21 -28 -24 -25 -2 2 -13 -3 -23 -13 -10 -9 -18
-11 -18 -5 0 6 5 12 12 14 6 2 8 10 4 16 -4 7 -31 12 -64 12 -31 0 -52 4 -47
8 13 9 16 42 4 42 -5 0 -9 -4 -9 -10 0 -5 -7 -10 -16 -10 -13 0 -14 3 -5 14 9
11 6 15 -15 20 -17 5 -24 12 -20 21 3 9 0 15 -8 15 -8 0 -16 -7 -20 -15 -3 -8
0 -15 6 -15 9 0 9 -3 0 -12 -9 -10 -16 -8 -29 5 -10 9 -12 17 -6 17 6 0 14 11
17 25 9 34 46 95 59 95 6 0 8 3 5 6 -4 3 2 14 13 25 25 25 24 39 -1 34 -14 -3
-25 5 -35 23 -16 27 -16 27 -9 2 3 -14 10 -30 15 -36 5 -6 3 -19 -5 -30 -14
-18 -15 -18 -21 -2 -4 10 -12 15 -17 12 -6 -4 -8 2 -3 15 3 11 2 21 -3 21 -4
0 -26 27 -47 59 -22 33 -41 58 -43 56 -2 -2 12 -28 32 -59 36 -56 36 -56 16
-76 -20 -20 -46 -28 -36 -11 4 5 -10 30 -29 55 -19 26 -35 50 -35 55 0 5 -10
16 -22 24 l-23 16 22 7 c12 3 25 16 29 27 l7 22 8 -22 c6 -16 13 -21 25 -16 9
3 20 0 26 -8 6 -10 7 -7 3 11 -5 16 8 4 35 -33 l42 -59 29 52 c16 29 37 59 46
66 16 13 8 14 -62 11 -44 -2 -89 -7 -100 -11 -17 -6 -20 -2 -21 24 -1 28 1 30
37 30 31 0 39 4 38 18 0 10 -3 12 -6 5 -5 -14 -33 -18 -33 -5 0 4 5 13 12 20
8 8 8 12 1 12 -11 0 -10 39 2 62 3 7 1 6 -7 -3 -7 -9 -18 -14 -23 -12 -6 2
-16 -7 -24 -19 -14 -23 -14 -23 8 -4 27 24 27 12 1 -21 -11 -14 -20 -22 -20
-18 0 4 -7 2 -15 -5 -9 -7 -13 -21 -10 -31 3 -9 1 -20 -4 -24 -7 -4 -9 1 -5
12 3 10 -13 -18 -36 -62 -23 -44 -47 -87 -55 -95 -7 -8 -20 -28 -28 -45 -9
-16 -16 -24 -17 -17 0 7 5 22 10 33 7 13 7 19 0 19 -5 0 -10 5 -10 11 0 8 4 8
14 0 11 -9 15 -8 20 5 9 24 7 31 -10 38 -12 4 -15 2 -10 -9 3 -8 1 -15 -3 -15
-22 0 -17 28 5 39 14 6 23 7 19 2 -3 -5 0 -13 6 -17 6 -3 15 0 20 7 5 8 3 17
-4 21 -8 5 -7 8 4 8 9 0 19 7 23 15 6 17 -9 21 -19 5 -8 -13 -25 -13 -25 0 0
6 13 13 30 16 24 5 32 14 41 45 7 21 21 48 31 59 21 22 16 43 -7 33 -10 -3
-15 1 -15 15 0 18 4 20 30 12 27 -8 32 -6 42 16 9 20 9 30 0 45 -17 26 -6 42
18 29 16 -9 22 -5 35 19 16 32 5 51 -15 26 -7 -8 -17 -12 -23 -8 -5 3 -7 2 -4
-4 19 -30 -127 -39 -148 -9 -7 9 -15 13 -18 10 -6 -6 -37 19 -37 29 0 3 9 7
21 10 23 6 23 44 -1 39 -10 -2 -11 0 -2 10 6 8 15 26 21 40 8 23 8 26 -5 21
-8 -3 -12 -8 -9 -11 2 -3 -4 -12 -16 -20 -11 -8 -24 -24 -29 -36 -8 -18 -9
-17 -9 12 -1 18 4 42 9 53 6 10 7 19 3 19 -13 0 -36 -59 -29 -75 3 -8 1 -17
-4 -20 -17 -10 -21 35 -6 57 27 38 18 43 -17 10 -18 -18 -36 -30 -39 -26 -4 3
-9 -4 -13 -16 -4 -13 -12 -19 -21 -16 -8 3 -12 1 -9 -4 3 -5 -6 -30 -20 -55
-15 -25 -24 -45 -20 -45 3 0 0 -7 -9 -15 -8 -8 -33 -49 -56 -91 -23 -41 -44
-73 -46 -71 -3 2 16 40 41 83 50 88 61 125 16 53 -37 -58 -81 -103 -103 -104
-18 -2 -32 31 -17 41 13 8 -21 54 -40 54 -14 0 -17 7 -13 30 3 19 0 30 -8 30
-7 0 -10 -7 -6 -15 8 -23 -13 -71 -37 -83 -37 -18 -67 -24 -67 -13 0 5 14 11
32 13 17 2 33 9 36 16 3 11 0 12 -16 3 -27 -14 -32 -14 -32 4 0 8 6 12 13 9 7
-2 23 6 36 20 19 20 20 24 5 23 -9 -1 -19 4 -22 12 -3 8 0 11 7 7 7 -5 9 -1 5
9 -8 20 -23 7 -29 -23 -2 -15 0 -19 11 -15 8 3 14 0 14 -7 0 -7 -8 -10 -20 -7
-16 4 -25 -6 -49 -49 -31 -57 -31 -60 -3 -43 14 9 30 9 58 1 25 -6 31 -10 17
-11 -24 -1 -31 -15 -13 -26 6 -3 10 -1 10 5 0 7 7 5 16 -4 8 -9 20 -14 25 -11
5 4 9 0 9 -9 0 -8 6 -17 12 -19 10 -4 9 -8 -2 -16 -12 -8 -17 -5 -24 15 -8 24
-12 26 -52 21 -24 -2 -44 -1 -44 4 0 5 8 9 17 9 12 0 14 3 6 11 -16 16 -57 1
-44 -15 14 -16 5 -25 -18 -19 -26 7 -21 28 27 121 24 45 40 87 37 92 -7 12 46
110 56 104 4 -2 11 1 15 7 5 8 3 9 -6 4 -8 -5 -11 -3 -8 6 3 8 10 14 15 14 6
0 15 4 20 9 5 6 2 6 -6 1 -11 -6 -13 -4 -8 8 10 27 1 20 -22 -15 -19 -31 -21
-31 -27 -12 -3 12 -22 29 -42 38 l-37 17 25 -20 c14 -12 28 -21 33 -21 4 0 7
-6 7 -14 0 -8 6 -16 13 -19 9 -3 9 -7 -1 -20 -11 -13 -18 -14 -38 -5 -20 10
-27 9 -34 -2 -6 -10 -4 -18 7 -24 10 -5 18 -4 24 5 17 28 22 -3 6 -37 -10 -19
-14 -40 -11 -46 5 -7 2 -8 -6 -3 -10 6 -12 4 -7 -8 3 -9 3 -16 -2 -14 -4 1
-22 -13 -40 -30 -18 -18 -28 -33 -22 -33 5 0 3 -13 -7 -29 -13 -23 -20 -27
-37 -21 -11 4 -21 16 -21 26 -3 37 -4 39 -15 24 -9 -13 -10 -13 -6 1 3 9 0 22
-6 28 -6 6 -7 11 -2 11 5 0 -4 13 -19 29 -26 27 -65 33 -50 9 4 -7 9 -6 14 1
5 9 10 7 20 -4 11 -13 10 -15 -2 -10 -13 5 -15 -2 -12 -42 4 -45 3 -46 -6 -16
-6 18 -20 38 -31 44 -11 6 -18 13 -15 16 3 3 12 0 21 -7 22 -19 18 3 -6 28
-11 12 -24 20 -29 17 -5 -3 -8 5 -7 17 3 34 68 148 84 148 11 0 10 -6 -4 -27
-10 -16 -22 -31 -27 -34 -14 -11 50 -39 88 -39 30 0 37 4 42 25 4 15 1 32 -6
40 -9 11 -9 15 -1 15 7 0 10 4 6 9 -3 6 -14 9 -24 8 -18 -1 -18 -2 1 -28 29
-38 19 -56 -15 -29 -32 25 -34 41 -8 64 15 14 24 15 40 6 12 -6 21 -15 21 -21
0 -6 5 -7 11 -3 7 4 2 12 -14 23 -13 9 -22 22 -19 29 3 11 0 12 -17 3 -11 -6
-32 -9 -46 -5 -16 4 -25 2 -25 -6 0 -6 -10 -20 -22 -30 -17 -14 -28 -16 -41
-8 -14 7 -23 5 -36 -9 -9 -10 -19 -22 -20 -28 -7 -23 -27 -42 -44 -42 -10 0
-16 5 -14 11 2 6 11 10 19 8 9 -1 21 10 28 28 7 16 16 30 20 30 18 0 15 36 -5
48 -19 12 -19 13 5 7 l25 -5 -23 12 c-16 8 -29 9 -40 2 -9 -6 -32 -7 -49 -3
-41 8 -44 -8 -3 -18 l30 -8 -31 -38 c-19 -23 -25 -37 -17 -37 8 0 19 5 26 12
8 8 12 9 12 1 0 -6 -5 -13 -11 -15 -6 -2 -8 -14 -4 -31 5 -19 14 -27 29 -27
12 0 16 -3 10 -8 -7 -4 -13 -16 -15 -26 -3 -14 -15 2 -41 53 -37 71 -41 95
-14 85 7 -3 16 2 19 10 4 10 1 16 -8 16 -17 0 -46 56 -38 76 10 25 -16 15 -31
-13 -26 -48 -17 -5 9 48 30 59 46 99 40 99 -2 0 -13 -17 -24 -37 -11 -21 -20
-34 -21 -30 0 5 5 17 10 27 13 24 -5 75 -22 64 -9 -6 -9 -9 0 -12 20 -6 3 -21
-18 -15 -24 6 -24 12 -5 37 17 22 20 40 6 32 -5 -4 -11 -1 -13 6 -3 7 -7 5
-11 -6 -4 -10 -3 -15 3 -11 6 3 10 4 10 0 0 -8 -51 -105 -56 -105 -6 0 18 60
27 66 12 7 11 24 -1 24 -5 0 -10 -7 -10 -15 0 -8 -5 -15 -11 -15 -6 0 -8 9 -4
20 3 11 2 20 -4 20 -5 0 -12 -8 -14 -17 -4 -14 -5 -12 -6 5 0 12 5 22 12 22 8
0 8 3 -2 9 -9 6 -19 4 -28 -4 -16 -17 -17 -42 0 -48 9 -4 9 -6 0 -6 -7 -1 -17
8 -23 20 -9 17 -8 23 7 34 11 8 18 26 18 44 l0 31 -18 -23 c-15 -17 -18 -18
-13 -4 3 11 2 16 -5 12 -5 -4 -7 -15 -4 -24 3 -11 0 -18 -8 -18 -22 0 -18 43
9 82 14 21 23 39 21 42 -6 5 -42 -54 -78 -127 -35 -73 -46 -78 -20 -10 11 28
15 53 10 56 -5 3 -9 -3 -10 -13 0 -14 -2 -14 -9 5 -6 15 -18 22 -36 22 -21 0
-25 4 -21 20 7 26 -9 35 -23 13 -9 -15 -9 -14 -4 8 4 19 1 26 -10 26 -8 0 -17
-8 -19 -18z m87 -95 c3 -9 6 -23 5 -32 0 -12 -3 -10 -9 6 -5 12 -14 22 -20 22
-6 0 -8 5 -5 10 9 15 22 12 29 -6z m80 -39 c-4 -8 -10 -15 -16 -15 -5 0 -6 -4
-3 -10 3 -5 1 -10 -4 -10 -14 0 -14 6 -1 31 12 22 32 26 24 4z m44 -45 c7 -11
19 -20 27 -20 8 0 15 -7 15 -15 0 -8 -6 -12 -12 -9 -17 7 -62 64 -51 64 4 0
14 -9 21 -20z m65 -26 c-4 -12 -8 -13 -14 -3 -9 15 -2 32 11 24 5 -3 6 -13 3
-21z m94 -27 c-6 -14 -21 -27 -33 -30 -19 -3 -18 0 10 29 36 38 41 38 23 1z
m-192 13 c-3 -5 -10 -10 -16 -10 -5 0 -9 5 -9 10 0 6 7 10 16 10 8 0 12 -4 9
-10z m156 -3 c-1 -12 -15 -9 -19 4 -3 6 1 10 8 8 6 -3 11 -8 11 -12z m-124
-13 c-3 -3 -12 -4 -19 -1 -8 3 -5 6 6 6 11 1 17 -2 13 -5z m78 -53 c-8 -17
-20 -31 -26 -31 -6 0 -3 7 5 16 9 8 19 27 23 42 3 15 8 22 10 15 2 -6 -3 -25
-12 -42z m-51 31 c3 -5 -1 -9 -9 -9 -8 0 -12 4 -9 9 3 4 7 8 9 8 2 0 6 -4 9
-8z m120 -44 c-16 -30 -27 -38 -17 -12 5 13 2 15 -15 9 -12 -3 -22 -3 -22 1 0
12 30 30 50 30 17 0 17 -3 4 -28z m-29 -38 c3 -5 1 -10 -4 -10 -6 0 -11 5 -11
10 0 6 2 10 4 10 3 0 8 -4 11 -10z m-45 -4 c0 -3 -4 -8 -10 -11 -5 -3 -10 -1
-10 4 0 6 5 11 10 11 6 0 10 -2 10 -4z m100 -51 c-7 -9 -15 -13 -18 -10 -3 2
1 11 8 20 7 9 15 13 18 10 3 -2 -1 -11 -8 -20z m130 0 c0 -3 -9 -14 -20 -25
-23 -23 -26 -19 -8 10 12 18 28 27 28 15z m8 -38 c-23 -36 -38 -46 -38 -27 0
6 5 10 10 10 6 0 10 4 10 10 0 11 32 51 37 46 2 -2 -7 -20 -19 -39z m-108 29
c0 -3 -4 -8 -10 -11 -5 -3 -10 -1 -10 4 0 6 5 11 10 11 6 0 10 -2 10 -4z m186
-53 c-7 -7 -26 7 -26 19 0 6 6 6 15 -2 9 -7 13 -15 11 -17z m-236 -13 c12 -7
10 -9 -8 -7 -12 0 -22 5 -22 9 0 11 12 10 30 -2z m205 0 c-3 -5 -1 -10 5 -10
6 0 8 -5 5 -10 -4 -6 -11 -7 -17 -4 -7 4 -8 -2 -3 -17 7 -21 7 -22 -9 -6 -15
15 -15 18 1 37 18 21 28 27 18 10z m745 -25 c0 6 5 2 11 -9 9 -14 8 -20 -1
-26 -9 -5 -9 -9 -1 -14 6 -4 11 -2 11 3 0 15 17 14 23 -2 5 -14 -15 -15 -46
-2 -15 6 -16 10 -5 16 10 6 10 11 0 21 -6 6 -12 17 -12 23 0 5 5 3 10 -5 5 -8
10 -10 10 -5z m-34 -31 c-3 -9 -6 -20 -6 -25 0 -4 -7 -6 -16 -2 -16 6 -16 7
-1 18 9 7 14 15 10 18 -3 4 -1 7 6 7 8 0 11 -6 7 -16z m-821 -54 c10 -16 -11
-11 -25 5 -7 8 -19 15 -26 15 -8 0 -14 7 -14 16 0 13 5 12 30 -6 16 -11 32
-25 35 -30z m78 36 c4 -10 1 -13 -9 -9 -7 3 -14 9 -14 14 0 14 17 10 23 -5z
m798 -24 c6 2 13 -2 16 -8 6 -18 -31 -23 -47 -6 -10 11 -15 12 -18 3 -6 -19 5
-25 43 -25 19 0 35 -3 35 -7 0 -4 15 -10 33 -13 83 -16 137 -105 103 -171 -22
-42 -100 -70 -134 -49 -12 8 -27 12 -31 9 -5 -3 -19 7 -31 22 -18 23 -23 25
-32 13 -8 -12 -9 -12 -4 3 3 9 1 17 -5 17 -13 0 -2 39 19 63 9 11 11 17 4 17
-7 0 -12 8 -12 18 0 12 -5 10 -18 -11 -10 -15 -27 -34 -38 -42 -16 -13 -17
-16 -4 -25 13 -8 13 -10 -2 -10 -22 0 -23 -14 -3 -34 23 -22 18 -29 -15 -22
-17 3 -30 1 -30 -4 0 -6 -8 -10 -17 -10 -14 0 -11 6 12 25 17 14 22 22 13 19
-13 -5 -18 -1 -18 14 0 12 -4 24 -10 27 -5 3 -10 11 -10 16 0 6 4 8 9 5 13 -8
34 21 25 35 -4 7 -3 9 4 5 6 -3 15 7 21 26 6 18 20 48 31 66 18 30 23 32 38
21 9 -7 14 -10 10 -5 -12 15 15 35 34 25 9 -5 22 -8 29 -7z m57 -31 c3 -8 -1
-12 -9 -9 -7 2 -15 10 -17 17 -3 8 1 12 9 9 7 -2 15 -10 17 -17z m136 -29 c2
-4 -4 -8 -14 -8 -10 0 -16 4 -14 8 3 4 9 8 14 8 5 0 11 -4 14 -8z m36 -17 c0
6 5 2 11 -8 12 -21 4 -38 -16 -31 -8 4 -12 10 -9 15 3 5 0 9 -5 9 -6 0 -11 -6
-11 -12 0 -9 -3 -9 -9 1 -7 10 -4 19 7 27 13 9 19 9 24 1 4 -7 8 -7 8 -2z
m-885 -5 c-3 -5 -11 -10 -16 -10 -6 0 -7 5 -4 10 3 6 11 10 16 10 6 0 7 -4 4
-10z m825 -15 c7 -9 11 -17 8 -20 -2 -2 -12 4 -21 15 -9 11 -13 20 -8 20 5 0
14 -7 21 -15z m-684 -22 c-8 -16 -22 -37 -31 -48 -16 -19 -17 -19 -3 5 8 14
20 35 27 48 6 12 14 22 17 22 2 0 -2 -12 -10 -27z m-276 2 c0 -8 -4 -15 -10
-15 -5 0 -10 7 -10 15 0 8 5 15 10 15 6 0 10 -7 10 -15z m64 -31 c3 -9 -1 -13
-12 -11 -25 4 -43 17 -37 27 7 12 43 1 49 -16z m72 12 c8 -9 10 -17 5 -21 -6
-3 -15 4 -21 15 -12 23 -5 26 16 6z m3 -45 c-6 -2 -18 4 -27 13 -15 15 -15 15
10 4 15 -7 23 -15 17 -17z m326 19 c4 -6 -8 -10 -29 -10 -20 0 -36 5 -36 10 0
6 13 10 29 10 17 0 33 -4 36 -10z m15 -45 c0 -10 -6 -12 -17 -8 -16 6 -16 5
-4 -10 18 -23 28 -21 36 4 4 11 9 18 12 16 6 -6 -33 -97 -42 -97 -3 0 -3 11 1
25 4 16 2 25 -6 25 -6 0 -8 5 -5 10 3 6 -1 13 -9 16 -23 9 -20 24 5 24 13 0
18 4 13 12 -4 7 -3 8 4 4 7 -4 12 -14 12 -21z m-260 -5 c-6 -11 -13 -20 -16
-20 -2 0 0 9 6 20 6 11 13 20 16 20 2 0 0 -9 -6 -20z m344 -30 c-10 -22 -22
-40 -26 -40 -14 0 -9 16 12 43 11 14 20 31 20 38 0 7 3 9 7 6 3 -4 -2 -25 -13
-47z m-640 24 c3 -8 2 -12 -4 -9 -6 3 -10 10 -10 16 0 14 7 11 14 -7z m130 1
c-4 -8 -8 -15 -10 -15 -2 0 -4 7 -4 15 0 8 4 15 10 15 5 0 7 -7 4 -15z m342
-28 c1 -9 -2 -17 -7 -17 -5 0 -9 7 -9 16 0 8 -4 12 -10 9 -17 -11 -11 -24 15
-31 23 -6 36 -24 17 -24 -4 0 -13 -13 -20 -30 -8 -16 -18 -30 -23 -30 -15 0
-10 22 8 36 10 7 14 16 10 20 -4 5 -12 2 -17 -6 -5 -8 -12 -11 -17 -7 -4 5 -1
12 6 17 19 11 6 41 -14 34 -8 -4 -15 -1 -15 7 0 7 3 9 6 6 4 -3 16 0 28 8 25
18 38 15 42 -8z m123 -12 c-12 -19 -23 -35 -25 -35 -6 0 14 40 29 58 18 23 16
12 -4 -23z m-369 5 c0 -5 -2 -10 -4 -10 -3 0 -8 5 -11 10 -3 6 -1 10 4 10 6 0
11 -4 11 -10z m114 -7 c4 -10 4 -14 0 -11 -4 4 -16 -4 -26 -18 -27 -33 -33
-25 -11 15 21 35 28 38 37 14z m67 -62 l23 -64 22 26 c12 14 24 32 27 39 3 10
9 9 23 -5 19 -18 19 -18 0 -11 -15 6 -17 3 -12 -14 4 -11 2 -23 -3 -27 -7 -4
-8 1 -4 11 6 16 4 16 -19 -1 -16 -12 -25 -30 -26 -47 -1 -35 -7 -44 -30 -50
-15 -4 -19 0 -18 16 1 12 8 20 15 18 9 -2 11 3 7 13 -3 9 -2 13 4 10 6 -3 10
1 10 10 0 10 -5 13 -12 9 -7 -4 -8 -3 -4 4 4 7 2 12 -4 12 -7 0 -9 7 -6 16 3
8 2 12 -4 9 -6 -3 -10 0 -10 7 0 7 -7 26 -15 42 -16 30 -12 68 4 50 5 -5 19
-38 32 -73z m-231 59 c0 -5 -4 -10 -10 -10 -5 0 -10 5 -10 10 0 6 5 10 10 10
6 0 10 -4 10 -10z m340 -20 c-8 -5 -17 -7 -19 -4 -3 3 1 9 9 14 8 5 17 7 19 4
3 -3 -1 -9 -9 -14z m252 1 c4 11 77 -26 89 -44 4 -5 12 -7 18 -3 6 4 9 2 5 -7
-3 -8 2 -20 11 -27 30 -25 12 -93 -36 -135 -12 -11 -19 -14 -14 -6 8 14 7 14
-42 -6 -7 -3 -13 2 -13 11 0 9 -8 16 -21 16 -11 0 -18 4 -15 9 4 5 -3 7 -14 4
-21 -5 -28 11 -10 22 6 3 10 10 10 15 0 6 -14 1 -31 -9 -27 -17 -34 -17 -45
-6 -16 16 -18 41 -5 49 16 10 1 45 -17 39 -12 -5 -12 -1 4 27 23 39 68 62 100
49 14 -5 24 -4 26 2z m-512 -31 c-12 -16 -24 -30 -26 -30 -3 0 4 14 16 30 12
17 24 30 26 30 3 0 -4 -13 -16 -30z m86 -5 c-4 -31 -24 -55 -45 -54 -13 0 -14
1 -1 6 17 6 40 32 40 46 0 6 -10 2 -22 -9 -22 -19 -23 -19 -8 1 13 17 31 34
37 35 1 0 0 -11 -1 -25z m264 9 c0 -13 -21 -42 -34 -47 -12 -5 -11 0 2 24 15
26 32 38 32 23z m310 -20 c0 -8 -5 -12 -10 -9 -6 4 -8 11 -5 16 9 14 15 11 15
-7z m-745 -34 c-3 -5 -12 -10 -18 -10 -7 0 -6 4 3 10 19 12 23 12 15 0z m65
-29 c0 -14 -27 -14 -35 -1 -4 6 -4 18 -1 26 5 14 8 14 21 0 8 -8 15 -19 15
-25z m855 -49 c-2 -2 4 -12 13 -23 9 -11 17 -25 17 -32 0 -7 15 -12 38 -11 31
1 38 -3 43 -21 3 -13 -1 -37 -10 -53 -18 -36 -20 -46 -6 -37 5 3 7 0 4 -8 -3
-9 -13 -13 -25 -10 -15 4 -17 8 -8 19 9 11 8 14 -2 14 -8 0 -5 6 7 15 17 13
17 14 2 15 -17 0 -23 -11 -19 -34 1 -5 -5 -6 -13 -3 -8 3 -17 1 -20 -6 -2 -7
-5 -4 -5 5 -1 10 16 29 37 44 20 14 28 23 18 20 -50 -17 -114 -27 -146 -22
-19 2 -27 2 -17 0 9 -3 15 -10 11 -15 -3 -5 16 -30 43 -55 26 -25 48 -51 48
-57 0 -7 7 -12 15 -12 8 0 15 -6 14 -12 -3 -38 -5 -43 -18 -43 -7 0 -16 14
-20 32 -3 17 -9 28 -13 25 -4 -4 -17 2 -29 14 -15 14 -31 20 -44 16 -15 -4
-20 -2 -16 8 2 7 -2 16 -11 19 -11 4 -14 15 -11 38 5 28 4 29 -9 13 -9 -13
-13 -14 -13 -5 0 7 7 21 16 31 12 14 13 22 4 39 -9 18 -7 29 13 68 13 25 30
48 38 50 12 3 12 2 0 -6 -8 -6 -11 -17 -8 -25 3 -9 -5 -26 -19 -40 -28 -28
-23 -57 10 -57 11 1 44 7 71 15 35 10 42 14 23 14 -14 1 -29 7 -31 14 -3 7 -6
5 -6 -5 -1 -24 -18 -23 -31 2 -11 20 1 57 22 71 5 3 3 13 -6 21 -8 9 -12 18
-9 21 5 6 63 -45 58 -51z m-475 32 c0 -2 -7 -4 -15 -4 -8 0 -15 4 -15 10 0 5
7 7 15 4 8 -4 15 -8 15 -10z m-220 -4 c0 -5 -6 -10 -14 -10 -8 0 -18 5 -21 10
-3 6 3 10 14 10 12 0 21 -4 21 -10z m160 -4 c0 -2 -8 -10 -17 -17 -16 -13 -17
-12 -4 4 13 16 21 21 21 13z m-260 -16 c0 -5 -4 -10 -10 -10 -5 0 -10 5 -10
10 0 6 5 10 10 10 6 0 10 -4 10 -10z m-138 -52 c-9 -9 -12 -7 -12 12 0 19 3
21 12 12 9 -9 9 -15 0 -24z m395 10 c-3 -8 -6 -5 -6 6 -1 11 2 17 5 13 3 -3 4
-12 1 -19z m-247 8 c0 -3 -4 -8 -10 -11 -5 -3 -10 -1 -10 4 0 6 5 11 10 11 6
0 10 -2 10 -4z m25 -25 c-3 -6 -11 -11 -17 -11 -6 0 -6 6 2 15 14 17 26 13 15
-4z m306 -4 c-8 -8 -14 -7 -23 2 -10 11 -10 13 0 7 6 -4 12 -2 12 4 0 6 5 8
11 4 8 -4 8 -9 0 -17z m559 13 c0 -5 -5 -10 -11 -10 -5 0 -7 5 -4 10 3 6 8 10
11 10 2 0 4 -4 4 -10z m-589 -27 c9 -8 20 -13 25 -12 21 5 71 -16 92 -38 16
-17 22 -36 22 -66 0 -46 -18 -69 -62 -80 -20 -5 -27 -2 -36 16 -6 12 -11 16
-11 10 -1 -7 -5 -13 -10 -13 -5 0 -7 10 -4 23 6 22 6 22 -22 -3 l-28 -25 6 23
c3 13 3 30 0 38 -4 12 -8 11 -19 -3 -11 -15 -15 -16 -23 -4 -5 8 -14 10 -21 6
-15 -9 -6 10 18 38 11 12 11 17 3 17 -8 0 -10 7 -6 20 7 23 -5 26 -24 8 -10
-11 -11 -10 -6 5 5 10 22 20 46 23 42 7 46 12 27 33 -11 11 -10 12 2 6 8 -4
22 -14 31 -22z m-211 7 c0 -5 -2 -10 -4 -10 -3 0 -8 5 -11 10 -3 6 -1 10 4 10
6 0 11 -4 11 -10z m-102 -25 c-3 -3 -9 2 -12 12 -6 14 -5 15 5 6 7 -7 10 -15
7 -18z m72 21 c0 -3 -4 -8 -10 -11 -5 -3 -10 -1 -10 4 0 6 5 11 10 11 6 0 10
-2 10 -4z m655 -6 c3 -5 -1 -10 -9 -10 -9 0 -16 5 -16 10 0 6 4 10 9 10 6 0
13 -4 16 -10z m191 -72 c-9 -12 -16 -19 -16 -15 0 11 24 47 28 42 2 -2 -3 -14
-12 -27z m-395 -21 c-10 -9 -11 -8 -5 6 3 10 9 15 12 12 3 -3 0 -11 -7 -18z
m-341 3 c8 -5 11 -10 5 -10 -5 0 -17 5 -25 10 -8 5 -10 10 -5 10 6 0 17 -5 25
-10z m-172 -27 c-5 -7 -14 -10 -19 -7 -16 10 -9 23 10 21 15 -1 17 -4 9 -14z
m157 -13 c3 -5 1 -10 -4 -10 -6 0 -11 5 -11 10 0 6 2 10 4 10 3 0 8 -4 11 -10z
m675 6 c0 -2 3 -13 6 -23 5 -17 4 -16 -10 1 -9 11 -19 17 -23 13 -3 -4 2 -17
13 -29 l19 -23 -22 19 c-28 24 -30 46 -3 46 11 0 20 -2 20 -4z m33 -31 c-3 -9
-8 -14 -10 -11 -3 3 -2 9 2 15 9 16 15 13 8 -4z m-225 -25 c-7 -11 -16 -20
-20 -20 -5 0 -3 9 4 20 7 11 16 20 20 20 5 0 3 -9 -4 -20z m258 -9 c2 -26 -12
-37 -20 -16 -3 8 0 15 6 15 6 0 5 6 -3 17 -12 14 -12 16 1 11 8 -2 16 -15 16
-27z m58 15 c-3 -8 -13 -17 -22 -19 -12 -3 -11 -5 5 -6 28 -1 37 -16 18 -31
-20 -16 -20 -41 0 -34 8 4 12 11 9 16 -4 6 2 5 14 -1 11 -6 29 -11 39 -11 11
0 28 -6 38 -14 17 -12 14 -13 -30 -14 -27 -1 -55 4 -63 11 -8 7 -18 11 -21 11
-3 -1 -15 2 -26 7 -17 7 -17 8 -2 8 9 1 17 3 17 5 0 2 3 12 7 22 5 13 3 16 -9
12 -20 -8 -19 29 2 42 22 14 30 12 24 -4z m-779 -22 c19 -25 19 -55 0 -80 -11
-15 -14 -16 -15 -3 0 8 3 19 8 25 4 5 -1 1 -10 -8 -9 -10 -18 -24 -21 -31 -2
-6 -7 -9 -11 -5 -4 3 0 18 9 32 19 29 12 68 -11 59 -15 -6 -17 -2 -8 21 8 20
40 15 59 -10z m435 22 c0 -3 -4 -8 -10 -11 -5 -3 -10 -1 -10 4 0 6 5 11 10 11
6 0 10 -2 10 -4z m130 -25 c3 -2 -3 -1 -12 2 -10 4 -18 2 -18 -3 0 -6 -7 -10
-15 -10 -13 0 -13 3 -3 19 12 19 19 18 48 -8z m-87 -11 c-9 -16 -21 -30 -25
-30 -4 0 1 13 10 30 9 16 21 30 25 30 5 0 0 -13 -10 -30z m-53 0 c8 -5 12 -11
10 -14 -3 -2 -14 2 -24 10 -22 15 -10 19 14 4z m-319 -40 c6 0 7 5 4 10 -12
20 6 9 35 -20 31 -31 38 -54 20 -65 -6 -4 -7 1 -3 12 4 10 -7 4 -24 -14 -31
-33 -53 -42 -53 -23 0 6 -7 10 -16 10 -13 0 -15 6 -9 27 l6 27 -20 -25 c-20
-24 -20 -24 -21 -2 0 12 5 25 10 28 6 3 10 16 10 28 0 17 2 19 10 7 7 -11 11
-8 21 15 12 28 13 29 16 8 3 -13 9 -23 14 -23z m499 34 c0 -8 -19 -13 -24 -6
-3 5 1 9 9 9 8 0 15 -2 15 -3z m-96 -20 c3 -8 2 -12 -4 -9 -6 3 -10 10 -10 16
0 14 7 11 14 -7z m201 -12 c-3 -3 -11 0 -18 7 -9 10 -8 11 6 5 10 -3 15 -9 12
-12z m307 -30 c-3 -9 -7 -10 -12 -2 -4 6 -15 8 -26 3 -18 -7 -18 -6 -1 11 9 9
17 22 17 29 0 6 6 2 14 -8 8 -11 11 -25 8 -33z m-532 18 c0 -5 -2 -10 -4 -10
-3 0 -8 5 -11 10 -3 6 -1 10 4 10 6 0 11 -4 11 -10z m195 0 c-3 -5 -10 -10
-16 -10 -5 0 -9 5 -9 10 0 6 7 10 16 10 8 0 12 -4 9 -10z m-255 -10 c0 -5 -7
-7 -15 -4 -8 4 -15 8 -15 10 0 2 7 4 15 4 8 0 15 -4 15 -10z m982 -8 c4 -12
-1 -18 -13 -18 -14 0 -15 4 -8 18 5 10 11 18 13 18 2 0 6 -8 8 -18z m35 1 c-4
-3 -2 -12 4 -20 8 -9 8 -13 1 -13 -6 0 -14 5 -17 10 -6 10 2 30 12 30 4 0 3
-3 0 -7z m-1074 -9 c9 -9 -12 -46 -23 -39 -6 4 -7 22 -1 43 2 4 18 2 24 -4z
m410 -18 c4 -10 1 -13 -9 -9 -15 6 -19 23 -5 23 5 0 11 -7 14 -14z m111 -9
c16 -12 14 -13 -18 -9 -20 2 -33 8 -30 13 8 13 27 11 48 -4z m406 3 c0 -5 -5
-10 -11 -10 -5 0 -7 5 -4 10 3 6 8 10 11 10 2 0 4 -4 4 -10z m-1339 -17 c13
-4 15 -11 10 -31 -4 -14 -13 -28 -21 -30 -9 -3 -11 1 -7 12 4 10 1 16 -7 16
-19 0 -39 27 -31 40 4 6 14 8 24 5 9 -4 23 -9 32 -12z m1269 -4 c0 -5 -4 -9
-8 -9 -5 0 -9 7 -9 15 0 8 4 12 9 9 4 -3 8 -9 8 -15z m40 -12 c0 -5 -4 -5 -10
-2 -5 3 -10 14 -10 23 0 15 2 15 10 2 5 -8 10 -19 10 -23z m107 18 c-5 -11 -1
-12 18 -5 23 9 24 8 13 -10 -7 -10 -14 -17 -18 -16 -3 2 -13 6 -23 9 -15 6
-16 9 -5 21 17 19 22 20 15 1z m-243 -14 c3 -5 -8 -11 -24 -13 -29 -4 -37 1
-23 15 9 10 41 9 47 -2z m-1127 -53 c-17 -27 -34 -29 -31 -5 1 12 3 28 3 35 1
9 5 10 20 0 15 -9 17 -15 8 -30z m1443 38 c0 -2 -8 -10 -17 -17 -16 -13 -17
-12 -4 4 13 16 21 21 21 13z m117 -21 c-13 -26 -20 -29 -52 -15 l-20 8 20 7
c16 5 37 14 62 24 0 1 -4 -10 -10 -24z m-322 5 c3 -5 1 -10 -4 -10 -6 0 -11 5
-11 10 0 6 2 10 4 10 3 0 8 -4 11 -10z m-703 -32 c-9 -9 -15 -9 -24 0 -10 10
-10 15 2 22 20 12 38 -6 22 -22z m-462 -3 c0 -1 -9 -5 -19 -8 -13 -3 -18 -1
-14 9 4 10 33 10 33 -1z"/>
<path d="M1239 1388 c-7 -18 -25 -53 -39 -78 -28 -47 -29 -73 -4 -63 9 3 12
13 9 24 -5 14 0 20 19 25 15 4 29 17 35 36 6 16 21 38 33 49 14 11 17 17 7 13
-10 -3 -19 1 -22 10 -10 25 -23 19 -38 -16z"/>
<path d="M1353 1280 c-3 -11 -9 -20 -13 -20 -4 0 -10 -9 -13 -20 -11 -42 24
-15 42 33 7 19 7 27 0 27 -6 0 -13 -9 -16 -20z"/>
<path d="M1426 1224 c-8 -21 -8 -24 3 -24 5 0 11 9 14 20 6 24 -8 27 -17 4z"/>
<path d="M1540 1008 c0 -17 29 -58 34 -49 4 6 -2 21 -13 33 -12 12 -21 19 -21
16z"/>
<path d="M1470 816 c0 -2 7 -7 16 -10 8 -3 12 -2 9 4 -6 10 -25 14 -25 6z"/>
<path d="M1510 796 c0 -3 14 -11 30 -20 17 -8 30 -11 30 -7 0 4 -11 13 -25 19
-28 13 -35 14 -35 8z"/>
<path d="M1145 780 c-3 -5 -1 -10 4 -10 6 0 11 5 11 10 0 6 -2 10 -4 10 -3 0
-8 -4 -11 -10z"/>
<path d="M1051 654 c0 -11 3 -14 6 -6 3 7 2 16 -1 19 -3 4 -6 -2 -5 -13z"/>
<path d="M1108 2033 c7 -3 16 -2 19 1 4 3 -2 6 -13 5 -11 0 -14 -3 -6 -6z"/>
<path d="M1246 2031 c-6 -9 7 -22 34 -35 8 -4 4 1 -9 12 -18 15 -21 21 -10 25
8 3 9 6 2 6 -6 1 -14 -3 -17 -8z"/>
<path d="M609 2011 c13 -12 28 -21 34 -21 12 0 11 0 -28 24 l-30 17 24 -20z"/>
<path d="M923 2016 c2 -6 27 -12 56 -14 40 -2 52 0 49 10 -3 8 -24 13 -57 14
-34 1 -51 -2 -48 -10z"/>
<path d="M1080 2020 c0 -5 5 -10 11 -10 5 0 7 5 4 10 -3 6 -8 10 -11 10 -2 0
-4 -4 -4 -10z"/>
<path d="M96 2003 c-6 -14 -5 -15 5 -6 7 7 10 15 7 18 -3 3 -9 -2 -12 -12z"/>
<path d="M1145 2010 c-3 -5 -2 -10 4 -10 5 0 13 5 16 10 3 6 2 10 -4 10 -5 0
-13 -4 -16 -10z"/>
<path d="M167 1999 c-10 -6 -25 -8 -33 -5 -8 3 -14 1 -14 -4 0 -15 34 -12 56
5 22 17 17 19 -9 4z"/>
<path d="M305 2000 c-9 -15 3 -29 24 -27 12 1 17 7 13 19 -5 19 -27 24 -37 8z"/>
<path d="M1400 2000 c0 -5 5 -10 11 -10 5 0 7 5 4 10 -3 6 -8 10 -11 10 -2 0
-4 -4 -4 -10z"/>
<path d="M590 1991 c0 -5 7 -12 16 -15 14 -5 15 -4 4 9 -14 17 -20 19 -20 6z"/>
<path d="M1068 1983 c7 -3 16 -2 19 1 4 3 -2 6 -13 5 -11 0 -14 -3 -6 -6z"/>
<path d="M1310 1973 c0 -7 11 -13 25 -13 14 0 25 4 25 10 0 6 9 6 26 0 14 -6
35 -10 47 -9 36 1 -31 20 -80 22 -29 2 -43 -2 -43 -10z"/>
<path d="M1020 1976 c0 -2 9 -6 20 -9 11 -3 18 -1 14 4 -5 9 -34 13 -34 5z"/>
<path d="M1120 1969 c0 -6 -8 -8 -17 -5 -15 5 -15 4 1 -9 22 -17 46 -20 46 -5
0 5 -8 7 -17 3 -15 -5 -14 -3 2 10 18 15 18 16 3 17 -10 0 -18 -5 -18 -11z"/>
<path d="M1501 1972 c-1 -15 -25 -63 -67 -137 -15 -27 -21 -44 -13 -38 9 7 19
9 24 5 4 -4 5 0 3 8 -7 21 19 70 38 70 8 0 12 5 9 11 -4 5 -2 23 5 39 7 16 10
35 7 42 -4 11 -6 11 -6 0z"/>
<path d="M275 1944 c0 -22 18 -43 36 -44 3 0 11 11 17 25 11 25 6 31 -22 26
-4 -1 -13 3 -20 8 -9 7 -12 3 -11 -15z m37 -26 c-8 -8 -9 -4 -5 13 4 13 8 18
11 10 2 -7 -1 -18 -6 -23z"/>
<path d="M400 1955 c-7 -8 -16 -13 -20 -10 -5 3 -11 1 -14 -4 -8 -12 18 -8 35
6 8 5 21 13 29 16 13 5 12 6 -1 6 -9 1 -22 -6 -29 -14z"/>
<path d="M642 1963 c1 -5 -6 -21 -16 -36 -10 -15 -16 -30 -14 -33 11 -11 58 9
63 27 5 16 10 17 28 7 21 -11 87 -29 87 -23 0 2 -16 12 -36 24 -19 12 -32 17
-29 11 9 -15 -1 -12 -37 10 -35 21 -49 25 -46 13z"/>
<path d="M879 1947 c7 -7 14 -8 21 -1 6 6 2 10 -12 11 -16 2 -18 -1 -9 -10z"/>
<path d="M893 1932 c-18 -2 -33 -7 -33 -12 0 -5 -2 -15 -5 -22 -11 -29 81 -50
115 -28 13 9 12 12 -5 26 -11 8 -19 19 -18 24 3 11 -17 16 -54 12z"/>
<path d="M1040 1915 c-7 -9 -10 -18 -7 -21 10 -11 37 5 37 21 0 19 -14 19 -30
0z"/>
<path d="M1408 1913 c7 -3 16 -2 19 1 4 3 -2 6 -13 5 -11 0 -14 -3 -6 -6z"/>
<path d="M1156 1898 c4 -7 16 -23 27 -36 29 -32 14 -73 -33 -89 l-35 -12 50 3
c28 3 67 7 88 11 31 6 41 4 51 -11 12 -15 16 -16 30 -5 21 18 20 31 -2 31 -10
0 -24 6 -31 13 -11 10 -13 9 -7 -3 4 -8 -3 -3 -16 11 -13 15 -32 30 -43 33
-11 3 -31 15 -45 26 -23 18 -23 20 -5 20 l20 1 -20 9 c-29 12 -37 12 -29 -2z
m84 -89 c0 -5 -7 -9 -15 -9 -15 0 -20 12 -9 23 8 8 24 -1 24 -14z"/>
<path d="M460 1880 c-6 -11 -15 -18 -20 -15 -6 3 -7 -1 -4 -9 3 -9 10 -13 15
-10 12 7 7 -39 -6 -48 -5 -4 -7 -10 -3 -13 3 -4 15 2 27 14 11 11 21 15 23 10
4 -13 58 10 58 24 0 5 -7 4 -15 -3 -18 -15 -61 -6 -69 16 -3 8 -1 24 4 35 6
10 8 19 6 19 -3 0 -10 -9 -16 -20z"/>
<path d="M1080 1880 c-11 -11 -20 -15 -20 -10 0 6 -11 10 -25 10 -22 0 -38
-19 -17 -21 4 0 15 -2 26 -4 28 -5 63 11 63 29 0 21 -3 20 -27 -4z"/>
<path d="M1530 1879 c0 -5 5 -7 10 -4 6 3 10 8 10 11 0 2 -4 4 -10 4 -5 0 -10
-5 -10 -11z"/>
<path d="M1845 1870 c3 -5 8 -10 11 -10 2 0 4 5 4 10 0 6 -5 10 -11 10 -5 0
-7 -4 -4 -10z"/>
<path d="M850 1850 c8 -5 22 -9 30 -9 10 0 8 3 -5 9 -27 12 -43 12 -25 0z"/>
<path d="M987 1844 c-3 -3 -3 -12 0 -20 4 -10 0 -12 -13 -8 -13 5 -16 4 -9 -4
6 -6 33 -13 60 -16 39 -4 43 -4 17 3 -43 11 -48 18 -21 26 17 6 19 9 8 16 -16
10 -33 11 -42 3z"/>
<path d="M918 1833 c12 -2 30 -2 40 0 9 3 -1 5 -23 4 -22 0 -30 -2 -17 -4z"/>
<path d="M1055 1829 c-12 -19 5 -23 22 -6 16 16 16 17 1 17 -9 0 -20 -5 -23
-11z"/>
<path d="M769 1813 c12 -24 34 -27 81 -14 21 6 22 8 8 14 -10 3 -20 2 -23 -3
-10 -15 -37 -12 -58 8 -19 16 -20 16 -8 -5z"/>
<path d="M1526 1805 c-23 -58 -28 -75 -23 -87 3 -9 7 -6 13 7 4 11 12 23 17
26 4 3 7 21 5 40 -3 28 -5 31 -12 14z"/>
<path d="M1487 1783 c-10 -9 -9 -33 1 -33 4 0 8 9 8 20 0 23 0 22 -9 13z"/>
<path d="M508 1743 c-3 -35 -6 -38 -41 -44 -20 -3 -41 -9 -45 -14 -4 -4 6 -5
21 -3 25 5 79 -3 130 -18 29 -9 21 33 -15 76 -18 22 -36 40 -40 40 -4 0 -8
-17 -10 -37z"/>
<path d="M783 1773 c-23 -9 -13 -30 20 -43 77 -29 75 -27 47 -38 -14 -6 -18
-11 -9 -11 44 -2 43 51 -2 71 -24 11 -26 14 -11 20 13 5 11 7 -8 7 -14 -1 -31
-3 -37 -6z"/>
<path d="M932 1769 c-14 -5 -20 -14 -16 -20 3 -6 1 -14 -5 -18 -6 -4 -14 -20
-17 -34 -4 -24 -1 -27 23 -27 l28 1 -22 18 c-12 10 -19 21 -16 25 4 3 15 -1
25 -11 14 -12 18 -13 18 -3 0 11 3 11 12 2 8 -8 8 -15 0 -24 -13 -17 1 -44 18
-33 6 4 9 13 6 21 -3 8 0 14 6 14 6 0 -1 9 -15 20 -14 11 -29 20 -34 19 -20
-3 -25 2 -13 16 14 17 35 21 24 4 -3 -6 5 -3 20 6 29 20 34 30 9 21 -9 -4 -19
-3 -22 2 -4 6 -16 6 -29 1z"/>
<path d="M1387 1751 c-9 -16 -17 -31 -17 -34 0 -8 40 4 46 14 3 5 -3 6 -13 2
-16 -6 -16 -5 -5 10 8 9 12 21 10 27 -2 6 -11 -2 -21 -19z"/>
<path d="M1616 1764 c-4 -9 -4 -19 -1 -22 2 -3 7 3 11 12 4 9 4 19 1 22 -2 3
-7 -3 -11 -12z"/>
<path d="M1815 1770 c3 -5 8 -10 11 -10 2 0 4 5 4 10 0 6 -5 10 -11 10 -5 0
-7 -4 -4 -10z"/>
<path d="M440 1761 c0 -6 -3 -10 -7 -8 -9 2 -13 -6 -13 -29 0 -12 9 -15 37
-12 20 2 38 9 41 16 3 9 -3 10 -24 2 -31 -12 -37 -9 -28 14 5 14 9 15 16 4 8
-10 9 -10 6 1 -5 18 -28 27 -28 12z"/>
<path d="M976 1731 c-9 -15 23 -36 36 -23 5 5 7 15 4 21 -9 13 -33 14 -40 2z"/>
<path d="M1178 1733 c6 -2 18 -2 25 0 6 3 1 5 -13 5 -14 0 -19 -2 -12 -5z"/>
<path d="M767 1723 c-10 -21 0 -38 23 -40 l25 -2 -25 8 -25 8 25 4 25 4 -22
13 c-12 7 -23 9 -26 5z"/>
<path d="M1452 1721 c-11 -7 -11 -9 2 -14 10 -4 16 -1 16 8 0 17 -1 17 -18 6z"/>
<path d="M1691 1711 c-6 -10 -7 -21 -4 -25 12 -12 18 -6 19 19 2 30 -2 31 -15
6z"/>
<path d="M1056 1702 c-3 -4 4 -9 15 -9 23 -2 25 3 4 10 -8 4 -16 3 -19 -1z"/>
<path d="M1415 1700 c-3 -5 -1 -10 4 -10 6 0 11 5 11 10 0 6 -2 10 -4 10 -3 0
-8 -4 -11 -10z"/>
<path d="M1480 1705 c0 -27 142 -109 159 -92 17 17 13 31 -4 17 -12 -10 -16
-8 -25 14 -11 31 -24 35 -15 5 7 -21 7 -21 -19 -3 -14 11 -26 22 -26 26 0 4
-6 5 -14 2 -10 -4 -14 0 -12 13 2 10 1 12 -1 5 -4 -11 -9 -10 -24 4 -10 9 -19
14 -19 9z"/>
<path d="M1770 1700 c-12 -7 -10 -9 7 -7 12 0 19 5 17 9 -6 10 -6 10 -24 -2z"/>
<path d="M1862 1698 c2 -6 10 -14 16 -16 7 -2 10 2 6 12 -7 18 -28 22 -22 4z"/>
<path d="M1346 1678 c-8 -13 -17 -39 -20 -58 -7 -35 -7 -35 8 -10 8 14 17 23
19 20 3 -3 9 -1 14 4 5 5 3 6 -4 2 -16 -9 -16 4 -3 38 12 32 5 34 -14 4z"/>
<path d="M1400 1670 c0 -6 -5 -8 -10 -5 -6 4 -5 -4 1 -19 7 -14 16 -23 21 -20
4 3 6 10 2 15 -3 6 0 9 8 7 7 -2 15 2 16 7 1 6 -1 10 -5 10 -5 0 -14 4 -20 8
-8 5 -13 4 -13 -3z"/>
<path d="M775 1660 c11 -5 29 -8 40 -8 16 0 15 2 -5 8 -34 11 -60 11 -35 0z"/>
<path d="M1900 1664 c1 -5 11 -28 23 -51 l22 -41 23 18 c24 20 22 40 -4 40 -8
0 -14 5 -14 12 0 6 -3 8 -7 5 -3 -4 -15 0 -25 10 -10 9 -18 12 -18 7z"/>
<path d="M643 1654 c-7 -3 -9 -12 -6 -20 3 -8 1 -14 -5 -14 -5 0 -12 7 -16 15
-3 8 -11 15 -18 15 -9 0 -8 -3 2 -10 10 -6 11 -10 3 -10 -7 0 -13 -5 -13 -11
0 -20 53 -5 61 19 5 12 7 22 6 21 -1 0 -7 -3 -14 -5z"/>
<path d="M862 1644 c4 -21 22 -23 26 -1 2 10 -3 17 -13 17 -10 0 -15 -6 -13
-16z"/>
<path d="M1685 1631 c-3 -6 4 -9 15 -8 11 1 20 5 20 9 0 11 -28 10 -35 -1z"/>
<path d="M910 1616 c0 -9 7 -16 16 -16 9 0 12 -5 8 -12 -4 -6 -3 -8 4 -5 5 4
9 15 8 25 -4 22 -36 29 -36 8z"/>
<path d="M1058 1623 c7 -3 16 -2 19 1 4 3 -2 6 -13 5 -11 0 -14 -3 -6 -6z"/>
<path d="M1097 1603 c-4 -3 -7 -14 -7 -23 0 -12 -9 -17 -29 -17 -30 0 -61 -17
-61 -34 0 -5 5 -9 12 -9 6 0 8 3 5 7 -4 3 5 12 20 20 16 8 29 10 32 4 4 -6 12
-6 21 -1 8 6 31 10 50 10 l35 1 -28 24 c-29 26 -39 30 -50 18z"/>
<path d="M1657 1596 c-4 -10 -1 -13 8 -9 8 3 12 9 9 14 -7 12 -11 11 -17 -5z"/>
<path d="M1050 1589 c0 -5 5 -7 10 -4 6 3 10 8 10 11 0 2 -4 4 -10 4 -5 0 -10
-5 -10 -11z"/>
<path d="M1285 1590 c-3 -5 -12 -7 -20 -3 -8 3 -15 0 -15 -6 0 -6 4 -11 10
-11 5 0 7 -8 4 -17 -5 -15 -4 -16 5 -3 18 24 32 50 27 50 -3 0 -7 -4 -11 -10z"/>
<path d="M2034 1556 c0 -33 1 -33 14 -15 8 11 11 26 8 34 -10 27 -22 16 -22
-19z"/>
<path d="M808 1569 c-17 -9 -17 -12 -2 -34 20 -30 31 -31 39 -4 5 14 13 19 26
16 10 -3 16 -1 13 4 -3 5 -22 7 -42 3 -34 -7 -36 -6 -23 9 15 19 13 21 -11 6z"/>
<path d="M1180 1552 c0 -11 -6 -23 -12 -25 -7 -3 -2 -6 12 -6 14 0 32 4 40 9
9 6 10 10 3 10 -6 0 -19 7 -27 16 -15 14 -16 14 -16 -4z"/>
<path d="M1700 1560 c0 -5 5 -10 10 -10 6 0 10 5 10 10 0 6 -4 10 -10 10 -5 0
-10 -4 -10 -10z"/>
<path d="M1650 1550 c0 -5 4 -10 9 -10 6 0 13 5 16 10 3 6 -1 10 -9 10 -9 0
-16 -4 -16 -10z"/>
<path d="M1063 1513 c0 -14 9 -15 47 -4 23 7 22 8 -11 12 -25 3 -36 1 -36 -8z"/>
<path d="M617 1506 c-4 -10 -5 -21 -2 -24 9 -9 17 6 13 25 -3 17 -4 17 -11 -1z"/>
<path d="M803 1506 c4 -10 7 -19 7 -22 0 -2 7 -1 15 3 13 4 15 -1 10 -25 -7
-42 20 -51 34 -11 7 20 7 29 0 29 -6 0 -25 10 -42 22 -26 19 -30 20 -24 4z"/>
<path d="M922 1490 c-12 -19 -22 -39 -22 -45 0 -5 5 -3 10 5 5 8 22 15 38 16
16 1 35 5 42 9 7 4 16 2 22 -6 8 -11 8 -10 4 4 -3 10 -6 24 -6 30 0 8 -4 7
-12 -1 -18 -18 -46 -15 -50 6 -3 13 -9 9 -26 -18z"/>
<path d="M1480 1505 c-11 -13 -10 -14 4 -9 9 3 16 10 16 15 0 13 -6 11 -20 -6z"/>
<path d="M762 1489 c-15 -23 -33 -24 -75 -4 -29 15 -30 15 -12 0 11 -9 30 -18
42 -21 19 -5 20 -8 8 -20 -17 -17 -25 -18 -25 -1 0 6 -11 17 -25 24 -15 6 -25
7 -25 1 0 -10 58 -62 72 -64 4 -1 13 -2 18 -3 6 0 10 -6 10 -12 0 -8 -4 -8
-13 -1 -10 8 -13 6 -13 -8 0 -15 4 -17 19 -8 14 7 23 5 38 -8 17 -15 19 -15
25 0 3 9 1 23 -6 31 -11 13 -10 14 2 10 9 -4 18 1 22 11 5 12 2 15 -11 10 -15
-6 -16 -5 -5 5 17 18 15 39 -4 39 -8 0 -13 3 -11 8 3 4 -1 12 -7 18 -10 9 -16
7 -24 -7z m17 -33 c9 -11 10 -20 1 -35 -13 -26 -16 -26 -23 -2 -3 14 -1 18 9
14 20 -7 17 7 -3 23 -10 7 -13 14 -7 14 6 0 17 -6 23 -14z"/>
<path d="M1030 1499 c0 -5 5 -7 10 -4 6 3 10 8 10 11 0 2 -4 4 -10 4 -5 0 -10
-5 -10 -11z"/>
<path d="M1775 1500 c3 -5 11 -10 16 -10 6 0 7 5 4 10 -3 6 -11 10 -16 10 -6
0 -7 -4 -4 -10z"/>
<path d="M1878 1503 c7 -3 16 -2 19 1 4 3 -2 6 -13 5 -11 0 -14 -3 -6 -6z"/>
<path d="M2006 1485 c-9 -26 -7 -32 5 -12 6 10 9 21 6 23 -2 3 -7 -2 -11 -11z"/>
<path d="M1046 1468 c3 -5 10 -6 15 -3 13 9 11 12 -6 12 -8 0 -12 -4 -9 -9z"/>
<path d="M610 1460 c0 -5 5 -10 10 -10 6 0 10 5 10 10 0 6 -4 10 -10 10 -5 0
-10 -4 -10 -10z"/>
<path d="M1716 1454 c-3 -9 -2 -12 5 -9 6 4 13 -3 16 -15 4 -15 8 -18 13 -9 8
12 -8 49 -21 49 -4 0 -10 -7 -13 -16z"/>
<path d="M1050 1446 c0 -2 7 -7 16 -10 8 -3 12 -2 9 4 -6 10 -25 14 -25 6z"/>
<path d="M1778 1445 c-6 -7 55 -146 79 -180 13 -19 14 -18 6 10 -13 49 -7 84
17 110 27 29 27 29 -25 42 -22 6 -47 14 -56 17 -8 4 -18 4 -21 1z"/>
<path d="M2075 1440 c3 -5 8 -10 11 -10 2 0 4 5 4 10 0 6 -5 10 -11 10 -5 0
-7 -4 -4 -10z"/>
<path d="M1036 1417 c3 -10 9 -15 12 -12 3 3 0 11 -7 18 -10 9 -11 8 -5 -6z"/>
<path d="M1068 1403 c7 -3 16 -2 19 1 4 3 -2 6 -13 5 -11 0 -14 -3 -6 -6z"/>
<path d="M1963 1390 c-1 -11 2 -18 8 -15 11 7 12 35 1 35 -4 0 -8 -9 -9 -20z"/>
<path d="M2085 1400 c3 -5 8 -10 11 -10 2 0 4 5 4 10 0 6 -5 10 -11 10 -5 0
-7 -4 -4 -10z"/>
<path d="M1720 1389 c0 -5 5 -7 10 -4 6 3 10 8 10 11 0 2 -4 4 -10 4 -5 0 -10
-5 -10 -11z"/>
<path d="M2045 1390 c3 -5 8 -10 11 -10 2 0 4 5 4 10 0 6 -5 10 -11 10 -5 0
-7 -4 -4 -10z"/>
<path d="M2015 1371 c-5 -10 44 -66 51 -58 2 2 -7 15 -21 30 -18 18 -22 27
-13 30 9 4 9 6 1 6 -6 1 -14 -3 -18 -8z"/>
<path d="M2116 1365 c4 -8 11 -15 16 -15 6 0 5 6 -2 15 -7 8 -14 15 -16 15 -2
0 -1 -7 2 -15z"/>
<path d="M2060 1362 c0 -16 28 -47 36 -39 4 4 2 7 -4 7 -7 0 -12 9 -12 20 0
11 -4 20 -10 20 -5 0 -10 -4 -10 -8z"/>
<path d="M2165 1339 c13 -25 19 -28 31 -18 16 13 19 23 3 14 -6 -4 -13 2 -16
14 -3 12 -12 21 -19 21 -12 0 -12 -5 1 -31z"/>
<path d="M740 1356 c0 -2 9 -6 20 -9 11 -3 18 -1 14 4 -5 9 -34 13 -34 5z"/>
<path d="M1697 1354 c-4 -4 3 -15 15 -25 29 -26 35 -24 12 4 -10 12 -19 23
-20 25 0 1 -4 -1 -7 -4z"/>
<path d="M1070 1346 c0 -2 6 -9 14 -15 10 -9 15 -8 20 4 4 10 -1 15 -14 15
-11 0 -20 -2 -20 -4z"/>
<path d="M1750 1330 c0 -5 5 -10 11 -10 5 0 7 5 4 10 -3 6 -8 10 -11 10 -2 0
-4 -4 -4 -10z"/>
<path d="M758 1323 c-10 -3 -18 -11 -18 -18 0 -17 38 -15 44 2 6 15 -3 21 -26
16z"/>
<path d="M1681 1325 c1 -19 18 -51 18 -35 0 8 -4 22 -9 30 -5 8 -9 11 -9 5z"/>
<path d="M1780 1320 c0 -5 5 -10 11 -10 5 0 7 5 4 10 -3 6 -8 10 -11 10 -2 0
-4 -4 -4 -10z"/>
<path d="M2020 1321 c0 -6 5 -13 10 -16 6 -3 10 1 10 9 0 9 -4 16 -10 16 -5 0
-10 -4 -10 -9z"/>
<path d="M1666 1280 c7 -28 12 -35 18 -29 2 2 -2 15 -10 29 l-15 25 7 -25z"/>
<path d="M1730 1287 c0 -9 5 -17 10 -17 6 0 10 -8 11 -17 0 -11 3 -13 6 -6 2
7 -3 23 -11 35 -13 18 -16 19 -16 5z"/>
<path d="M1765 1290 c3 -5 8 -10 11 -10 2 0 4 5 4 10 0 6 -5 10 -11 10 -5 0
-7 -4 -4 -10z"/>
<path d="M2003 1284 c-15 -15 -17 -34 -4 -34 8 0 24 41 18 46 -1 1 -8 -4 -14
-12z"/>
<path d="M2075 1269 c-16 -25 25 -109 53 -109 8 0 13 3 9 6 -3 3 -1 18 4 32 8
21 5 30 -18 54 -29 30 -38 34 -48 17z"/>
<path d="M1705 1260 c-3 -5 1 -10 10 -10 9 0 13 5 10 10 -3 6 -8 10 -10 10 -2
0 -7 -4 -10 -10z"/>
<path d="M1925 1260 c-3 -6 1 -7 9 -4 18 7 21 14 7 14 -6 0 -13 -4 -16 -10z"/>
<path d="M1810 1253 c0 -6 5 -15 10 -18 6 -4 8 -11 5 -16 -4 -5 -1 -9 4 -9 15
0 14 13 -4 36 -8 10 -15 14 -15 7z"/>
<path d="M1955 1238 c-4 -11 -2 -25 3 -30 8 -8 9 -4 5 13 -6 22 -5 23 11 10
23 -19 30 -9 6 12 -18 15 -19 15 -25 -5z"/>
<path d="M2019 1243 c-13 -16 -12 -17 4 -4 16 13 21 21 13 21 -2 0 -10 -8 -17
-17z"/>
<path d="M2140 1244 c0 -2 14 -10 30 -19 30 -15 42 -7 18 12 -12 9 -48 14 -48
7z"/>
<path d="M1870 1224 c0 -8 5 -12 10 -9 6 4 8 11 5 16 -9 14 -15 11 -15 -7z"/>
<path d="M1895 1210 c-9 -16 -13 -30 -11 -30 3 0 12 14 21 30 9 17 13 30 11
30 -3 0 -12 -13 -21 -30z"/>
<path d="M2036 1231 c-3 -5 2 -19 13 -32 l18 -23 -5 32 c-4 31 -15 41 -26 23z"/>
<path d="M1688 1213 c7 -3 16 -2 19 1 4 3 -2 6 -13 5 -11 0 -14 -3 -6 -6z"/>
<path d="M2010 1213 c0 -6 8 -17 18 -24 16 -13 16 -13 2 6 -8 11 -16 22 -17
24 -2 2 -3 0 -3 -6z"/>
<path d="M1817 1178 c20 -25 23 -64 7 -84 -15 -18 -15 -18 -9 2 4 14 0 24 -10
28 -8 3 -15 1 -15 -4 0 -6 3 -10 8 -10 4 0 8 -11 8 -24 1 -18 -2 -22 -17 -19
-13 4 -19 0 -19 -12 0 -14 3 -15 15 -5 19 16 19 1 0 -24 -19 -25 -19 -33 0
-33 9 0 14 6 11 12 -5 14 24 16 42 2 9 -7 11 -6 7 5 -4 10 1 17 15 21 25 7 20
22 -10 30 -18 4 -20 2 -14 -16 3 -12 3 -19 -1 -15 -5 4 -14 3 -22 -3 -7 -6
-13 -8 -13 -4 0 12 60 114 71 120 5 4 9 12 9 18 0 7 -10 1 -21 -13 -12 -15
-19 -19 -18 -10 3 21 -11 50 -23 50 -7 0 -7 -4 -1 -12z"/>
<path d="M1949 1168 c-14 -10 -14 -14 -1 -40 8 -16 16 -27 19 -24 2 2 0 13 -6
24 -16 30 -14 33 15 22 22 -9 25 -8 20 6 -3 8 -6 18 -6 20 0 8 -25 3 -41 -8z"/>
<path d="M2280 1164 c0 -8 5 -12 10 -9 6 3 10 10 10 16 0 5 -4 9 -10 9 -5 0
-10 -7 -10 -16z"/>
<path d="M2077 1159 c7 -7 15 -10 18 -7 3 3 -2 9 -12 12 -14 6 -15 5 -6 -5z"/>
<path d="M1896 1143 c-4 -9 -4 -18 -1 -21 3 -3 5 0 5 7 0 9 4 9 14 -1 8 -7 11
-17 8 -23 -2 -5 1 -4 8 2 12 11 10 16 -7 32 -19 18 -22 18 -27 4z"/>
<path d="M2065 1099 c38 -43 47 -49 59 -42 5 4 0 11 -12 16 -12 6 -22 13 -22
17 0 4 -12 16 -27 25 l-28 18 30 -34z"/>
<path d="M1552 1094 c2 -8 7 -14 12 -14 5 1 13 -4 18 -12 7 -9 8 -8 4 5 -3 10
-6 23 -6 28 0 5 -7 9 -16 9 -9 0 -14 -7 -12 -16z"/>
<path d="M1898 1090 c3 -8 5 -25 5 -38 -1 -19 2 -21 13 -11 8 7 12 19 9 27 -5
13 -3 13 12 1 16 -13 17 -12 4 4 -7 9 -19 17 -26 17 -8 0 -15 3 -18 8 -2 4 -1
0 1 -8z"/>
<path d="M2325 1100 c-3 -5 -1 -10 4 -10 6 0 11 5 11 10 0 6 -2 10 -4 10 -3 0
-8 -4 -11 -10z"/>
<path d="M1870 1075 c7 -9 15 -13 17 -11 7 7 -7 26 -19 26 -6 0 -6 -6 2 -15z"/>
<path d="M1992 1068 c-18 -18 -14 -35 14 -57 34 -27 38 -26 55 7 7 15 15 30
17 33 3 6 -51 29 -67 29 -4 0 -12 -5 -19 -12z"/>
<path d="M1595 1051 c-3 -5 -1 -12 5 -16 5 -3 10 1 10 9 0 18 -6 21 -15 7z"/>
<path d="M1615 1020 c-3 -5 -1 -10 4 -10 6 0 11 5 11 10 0 6 -2 10 -4 10 -3 0
-8 -4 -11 -10z"/>
<path d="M1750 1014 c0 -8 5 -12 10 -9 6 3 10 10 10 16 0 5 -4 9 -10 9 -5 0
-10 -7 -10 -16z"/>
<path d="M2086 1013 c-6 -14 -5 -15 5 -6 7 7 10 15 7 18 -3 3 -9 -2 -12 -12z"/>
<path d="M2154 996 c-3 -8 0 -25 6 -37 12 -21 13 -21 23 -3 6 10 17 23 25 28
12 7 12 10 1 17 -21 13 -49 11 -55 -5z"/>
<path d="M1810 989 c0 -5 5 -7 10 -4 6 3 10 8 10 11 0 2 -4 4 -10 4 -5 0 -10
-5 -10 -11z"/>
<path d="M1920 990 c20 -13 33 -13 25 0 -3 6 -14 10 -23 10 -15 0 -15 -2 -2
-10z"/>
<path d="M2277 979 c-4 -16 -3 -18 9 -8 7 6 11 15 8 20 -8 13 -11 11 -17 -12z"/>
<path d="M1887 969 c7 -7 15 -10 18 -7 3 3 -2 9 -12 12 -14 6 -15 5 -6 -5z"/>
<path d="M2331 964 c0 -11 3 -14 6 -6 3 7 2 16 -1 19 -3 4 -6 -2 -5 -13z"/>
<path d="M1783 940 c-3 -18 -12 -34 -19 -37 -8 -3 -11 -9 -8 -15 3 -5 16 -2
31 7 14 9 27 14 30 11 3 -2 -4 -11 -16 -18 -24 -15 -29 -33 -7 -25 10 4 13 1
9 -10 -3 -8 0 -19 8 -24 12 -7 11 -9 -2 -9 -9 0 -20 10 -26 23 -12 26 -49 33
-57 10 -4 -9 -4 -18 -1 -21 3 -3 5 1 5 9 0 9 3 10 8 3 4 -5 25 -19 47 -31 l41
-21 1 21 c1 11 8 24 15 28 9 6 8 10 -5 15 -9 3 -17 13 -17 20 0 12 4 12 20 4
16 -8 18 -8 14 4 -3 9 3 17 16 21 24 8 21 31 -3 29 -9 -1 -18 5 -21 13 -5 11
-1 13 17 7 12 -3 19 -3 15 1 -4 4 -26 10 -48 12 -38 4 -41 3 -47 -27z m63 -13
c7 -21 -4 -37 -14 -21 -4 6 -15 13 -24 17 -26 9 -22 22 7 22 16 0 27 -7 31
-18z"/>
<path d="M1955 950 c3 -5 11 -10 16 -10 6 0 7 5 4 10 -3 6 -11 10 -16 10 -6 0
-7 -4 -4 -10z"/>
<path d="M2085 950 c-3 -5 -1 -10 4 -10 6 0 11 5 11 10 0 6 -2 10 -4 10 -3 0
-8 -4 -11 -10z"/>
<path d="M1955 910 c3 -5 11 -10 16 -10 6 0 7 5 4 10 -3 6 -11 10 -16 10 -6 0
-7 -4 -4 -10z"/>
<path d="M1886 888 c-35 -20 -8 -62 52 -80 22 -6 22 -6 5 24 -14 23 -15 32 -5
35 6 3 12 8 12 13 0 12 -46 18 -64 8z"/>
<path d="M2237 893 c-4 -3 -7 -11 -7 -17 0 -6 5 -5 12 2 6 6 9 14 7 17 -3 3
-9 2 -12 -2z"/>
<path d="M2431 884 c0 -11 3 -14 6 -6 3 7 2 16 -1 19 -3 4 -6 -2 -5 -13z"/>
<path d="M2390 876 c0 -8 -3 -23 -6 -33 -3 -10 2 -7 10 7 18 30 20 40 6 40 -5
0 -10 -6 -10 -14z"/>
<path d="M1955 862 c-11 -30 -4 -34 21 -11 l27 24 -17 -32 c-24 -47 -19 -53 9
-11 14 20 25 39 25 41 0 11 -60 1 -65 -11z"/>
<path d="M2070 870 c0 -5 5 -10 10 -10 6 0 10 5 10 10 0 6 -4 10 -10 10 -5 0
-10 -4 -10 -10z"/>
<path d="M2140 865 c0 -8 4 -15 10 -15 5 0 7 7 4 15 -4 8 -8 15 -10 15 -2 0
-4 -7 -4 -15z"/>
<path d="M2040 860 c0 -5 5 -10 10 -10 6 0 10 5 10 10 0 6 -4 10 -10 10 -5 0
-10 -4 -10 -10z"/>
<path d="M2207 855 c3 -8 9 -12 14 -9 12 7 11 11 -5 17 -10 4 -13 1 -9 -8z"/>
<path d="M2115 851 c-3 -5 -1 -12 5 -16 5 -3 10 1 10 9 0 18 -6 21 -15 7z"/>
<path d="M2170 851 c0 -10 29 -36 34 -30 1 2 -6 12 -16 22 -10 9 -18 13 -18 8z"/>
<path d="M2454 846 c-6 -6 -13 -24 -16 -38 -4 -19 -1 -25 9 -21 8 3 13 15 11
27 -2 13 2 20 10 19 6 -2 12 1 12 6 0 16 -14 20 -26 7z"/>
<path d="M2055 830 c-3 -5 -2 -10 4 -10 6 0 7 -7 4 -17 -4 -11 -3 -14 5 -9 14
9 16 33 3 41 -5 3 -12 1 -16 -5z"/>
<path d="M2150 826 c0 -9 5 -16 10 -16 6 0 10 4 10 9 0 6 -4 13 -10 16 -5 3
-10 -1 -10 -9z"/>
<path d="M2023 809 c4 -13 7 -30 7 -36 0 -7 4 -13 8 -13 12 0 2 59 -11 67 -6
4 -8 -2 -4 -18z"/>
<path d="M2090 810 c0 -5 5 -10 10 -10 6 0 10 5 10 10 0 6 -4 10 -10 10 -5 0
-10 -4 -10 -10z"/>
<path d="M2267 799 c4 -13 9 -17 15 -11 11 11 3 32 -12 32 -4 0 -6 -9 -3 -21z"/>
<path d="M1840 804 c0 -5 16 -14 35 -20 19 -6 35 -8 35 -4 0 4 -8 10 -17 13
-10 2 -26 8 -35 12 -10 4 -18 3 -18 -1z"/>
<path d="M2345 784 c0 -22 1 -23 12 -8 10 14 15 15 28 4 8 -7 15 -8 15 -2 0 9
-21 22 -45 27 -5 1 -10 -8 -10 -21z"/>
<path d="M1996 785 c-3 -10 -2 -23 4 -29 15 -15 22 -2 12 24 -8 21 -9 22 -16
5z"/>
<path d="M2460 775 c-7 -9 -10 -18 -7 -21 3 -3 10 4 17 15 13 25 8 27 -10 6z"/>
<path d="M2060 770 c0 -12 8 -12 35 0 18 8 17 9 -7 9 -16 1 -28 -3 -28 -9z"/>
<path d="M2285 770 c-3 -5 -1 -10 5 -10 6 0 8 -5 4 -12 -4 -7 -3 -8 4 -4 6 4
9 13 5 21 -6 18 -10 19 -18 5z"/>
<path d="M2406 754 c-21 -20 -20 -21 6 -20 13 1 24 9 26 19 4 21 -11 22 -32 1z"/>
<path d="M1820 750 c0 -5 6 -10 13 -10 6 0 22 -3 33 -6 14 -4 23 0 28 12 5 13
3 14 -6 7 -8 -6 -22 -7 -33 -2 -28 11 -35 11 -35 -1z"/>
<path d="M2355 728 c-16 -28 -16 -31 -2 -19 12 9 17 10 17 2 0 -7 5 -9 11 -5
8 5 8 8 0 14 -7 3 -9 14 -5 23 10 27 0 19 -21 -15z"/>
<path d="M2263 735 c0 -8 4 -12 9 -9 5 3 6 10 3 15 -9 13 -12 11 -12 -6z"/>
<path d="M2315 720 c-3 -11 -11 -20 -16 -20 -5 0 -9 -4 -9 -10 0 -19 15 -10
32 20 9 17 13 30 8 30 -5 0 -12 -9 -15 -20z"/>
<path d="M2196 705 c-3 -8 -1 -15 4 -15 6 0 10 7 10 15 0 8 -2 15 -4 15 -2 0
-6 -7 -10 -15z"/>
<path d="M2260 700 c-9 -6 -10 -10 -3 -10 6 0 15 5 18 10 8 12 4 12 -15 0z"/>
</g>
</svg>
